G04 #@! TF.GenerationSoftware,KiCad,Pcbnew,5.1.6*
G04 #@! TF.CreationDate,2020-09-17T01:01:23+03:00*
G04 #@! TF.ProjectId,StabTester,53746162-5465-4737-9465-722e6b696361,rev?*
G04 #@! TF.SameCoordinates,Original*
G04 #@! TF.FileFunction,Legend,Top*
G04 #@! TF.FilePolarity,Positive*
%FSLAX46Y46*%
G04 Gerber Fmt 4.6, Leading zero omitted, Abs format (unit mm)*
G04 Created by KiCad (PCBNEW 5.1.6) date 2020-09-17 01:01:23*
%MOMM*%
%LPD*%
G01*
G04 APERTURE LIST*
%ADD10C,0.010000*%
%ADD11C,0.120000*%
%ADD12C,0.150000*%
%ADD13C,4.087800*%
%ADD14C,3.148000*%
%ADD15C,1.850000*%
%ADD16C,3.150000*%
%ADD17C,4.100000*%
%ADD18C,1.800000*%
%ADD19C,2.300000*%
G04 APERTURE END LIST*
D10*
G04 #@! TO.C,G\u002A\u002A\u002A*
G36*
X146641973Y-54709686D02*
G01*
X147581391Y-55134595D01*
X148994412Y-55889096D01*
X150823135Y-56944075D01*
X150900695Y-56990083D01*
X153516679Y-58686593D01*
X156392820Y-60796842D01*
X159356371Y-63177431D01*
X162234590Y-65684958D01*
X164854731Y-68176023D01*
X166658005Y-70070736D01*
X167767958Y-71286125D01*
X169230734Y-72859196D01*
X170907203Y-74641868D01*
X172658240Y-76486062D01*
X174038487Y-77926163D01*
X176607349Y-80603785D01*
X178732304Y-82853377D01*
X180466451Y-84747706D01*
X181862887Y-86359538D01*
X182974707Y-87761640D01*
X183855011Y-89026777D01*
X184556894Y-90227717D01*
X185133454Y-91437227D01*
X185637787Y-92728071D01*
X186122992Y-94173017D01*
X186297386Y-94726266D01*
X187039763Y-97187951D01*
X187568413Y-99190146D01*
X187917175Y-100934059D01*
X188119885Y-102620897D01*
X188210382Y-104451866D01*
X188224638Y-106186111D01*
X188195674Y-108174781D01*
X188105574Y-109656379D01*
X187928984Y-110828482D01*
X187640550Y-111888664D01*
X187409758Y-112536111D01*
X186020690Y-115443264D01*
X184206853Y-118072621D01*
X182674366Y-119708571D01*
X181533396Y-120705330D01*
X180243685Y-121746587D01*
X178941994Y-122732218D01*
X177765088Y-123562099D01*
X176849727Y-124136107D01*
X176332677Y-124354118D01*
X176328777Y-124354166D01*
X175803488Y-124476119D01*
X174835951Y-124795620D01*
X173652791Y-125236922D01*
X172364052Y-125646719D01*
X170541919Y-126094158D01*
X168354570Y-126542011D01*
X165970184Y-126953049D01*
X165736594Y-126989281D01*
X163018452Y-127401389D01*
X160283303Y-127806602D01*
X157650602Y-128188031D01*
X155239804Y-128528787D01*
X153170364Y-128811980D01*
X151561735Y-129020722D01*
X150547917Y-129136738D01*
X149751566Y-129214795D01*
X148459567Y-129343277D01*
X146878244Y-129501614D01*
X145809793Y-129609103D01*
X144187874Y-129745803D01*
X142756716Y-129817841D01*
X141707158Y-129818194D01*
X141311876Y-129774682D01*
X140646400Y-129757410D01*
X140493750Y-130005455D01*
X140284905Y-130258839D01*
X139582060Y-130262942D01*
X138994444Y-130172792D01*
X137663488Y-129963576D01*
X136784151Y-129921455D01*
X136122770Y-130045618D01*
X135819444Y-130161748D01*
X135301124Y-130224605D01*
X135202083Y-130036354D01*
X134869489Y-129801754D01*
X133943129Y-129668559D01*
X133159443Y-129645833D01*
X131926752Y-129595605D01*
X130255154Y-129460352D01*
X128402956Y-129263215D01*
X127250415Y-129116404D01*
X125431929Y-128876992D01*
X123645610Y-128658237D01*
X122143414Y-128490229D01*
X121443750Y-128422917D01*
X119945288Y-128286833D01*
X118402819Y-128132698D01*
X117827778Y-128070401D01*
X116347398Y-127903808D01*
X114791804Y-127728605D01*
X114476389Y-127693058D01*
X113246421Y-127571808D01*
X111664850Y-127439014D01*
X110154861Y-127329025D01*
X108394940Y-127126851D01*
X106491988Y-126778235D01*
X105114026Y-126430544D01*
X103469825Y-126039777D01*
X101563441Y-125739802D01*
X99998748Y-125606759D01*
X98131039Y-125488347D01*
X96885540Y-125297933D01*
X96287830Y-125042329D01*
X96363486Y-124728344D01*
X96455143Y-124663252D01*
X97150428Y-124435092D01*
X97891801Y-124359568D01*
X98813972Y-124175727D01*
X99813642Y-123575980D01*
X101034353Y-122472372D01*
X101131054Y-122374724D01*
X101909593Y-121747768D01*
X102972814Y-121077416D01*
X103339953Y-120880460D01*
X104267301Y-120360179D01*
X104906271Y-119911308D01*
X105036468Y-119773096D01*
X105473545Y-119498511D01*
X106097411Y-119423672D01*
X106562072Y-119563514D01*
X106627083Y-119704437D01*
X106340625Y-120238387D01*
X105669075Y-120809796D01*
X104894169Y-121225581D01*
X104305221Y-121295686D01*
X103884975Y-121279102D01*
X103878227Y-121745054D01*
X104177475Y-122255674D01*
X104443174Y-122325694D01*
X104794780Y-122544466D01*
X104940609Y-123231447D01*
X104904971Y-123736805D01*
X105178801Y-123924618D01*
X105883785Y-124001389D01*
X106710379Y-124170889D01*
X107107435Y-124530555D01*
X107581880Y-124924417D01*
X108309345Y-125059722D01*
X109167374Y-125178161D01*
X109667475Y-125419002D01*
X110160168Y-125631415D01*
X111188898Y-125906220D01*
X112590581Y-126210707D01*
X114202136Y-126512167D01*
X115860482Y-126777893D01*
X117402537Y-126975176D01*
X117452987Y-126980501D01*
X119083586Y-127208809D01*
X121046430Y-127566091D01*
X122996210Y-127984519D01*
X124437403Y-128352430D01*
X125737146Y-128586956D01*
X127627932Y-128739248D01*
X130000676Y-128814417D01*
X132746293Y-128817573D01*
X135755697Y-128753826D01*
X138919803Y-128628287D01*
X142129526Y-128446066D01*
X145275780Y-128212273D01*
X148249482Y-127932018D01*
X150941544Y-127610413D01*
X153242882Y-127252567D01*
X154781250Y-126930918D01*
X156320549Y-126581027D01*
X157936094Y-126258399D01*
X158744916Y-126118313D01*
X160476294Y-125764002D01*
X161951626Y-125308353D01*
X163046599Y-124803621D01*
X163636902Y-124302055D01*
X163699555Y-124035737D01*
X163309592Y-123578674D01*
X162890308Y-123484025D01*
X162099619Y-123276795D01*
X161881033Y-122680377D01*
X162066796Y-122137345D01*
X162391667Y-121754093D01*
X162887394Y-121644852D01*
X163656437Y-121836737D01*
X164801255Y-122356862D01*
X166424307Y-123232342D01*
X166620094Y-123342299D01*
X168054890Y-124107718D01*
X169144496Y-124555151D01*
X170128554Y-124761298D01*
X171185417Y-124803496D01*
X173137507Y-124570309D01*
X174895981Y-123958704D01*
X176279234Y-123049044D01*
X176939333Y-122257284D01*
X177335450Y-120995698D01*
X177343296Y-119358367D01*
X177208562Y-118709722D01*
X181063195Y-118709722D01*
X181331650Y-119052248D01*
X181415972Y-119062500D01*
X181758499Y-118794045D01*
X181768750Y-118709722D01*
X181500295Y-118367195D01*
X181415972Y-118356944D01*
X181073446Y-118625399D01*
X181063195Y-118709722D01*
X177208562Y-118709722D01*
X176968664Y-117554803D01*
X176795259Y-117046516D01*
X176660882Y-116315265D01*
X176874088Y-116098270D01*
X177266445Y-116428599D01*
X177518319Y-116904554D01*
X178153171Y-117888144D01*
X178947807Y-118367098D01*
X179747132Y-118278655D01*
X180134455Y-117963220D01*
X180916804Y-117385008D01*
X181760255Y-117071004D01*
X182710515Y-116643068D01*
X183342809Y-116034891D01*
X183796051Y-115258956D01*
X183810740Y-114924388D01*
X183444444Y-114917361D01*
X183127305Y-114715156D01*
X183114724Y-114300000D01*
X183195523Y-113360193D01*
X183202097Y-112743026D01*
X183364154Y-111878222D01*
X183793467Y-110856315D01*
X183884596Y-110694389D01*
X184320111Y-109741628D01*
X184559422Y-108797135D01*
X184571405Y-108071108D01*
X184324938Y-107773742D01*
X184317066Y-107773611D01*
X184167564Y-107474732D01*
X184153170Y-106755737D01*
X184246442Y-105883083D01*
X184419942Y-105123229D01*
X184628237Y-104751969D01*
X184870418Y-104262990D01*
X184952979Y-103389274D01*
X184890348Y-102414726D01*
X184696953Y-101623253D01*
X184453370Y-101310921D01*
X183856424Y-100771496D01*
X183318733Y-99767922D01*
X182942825Y-98540279D01*
X182827083Y-97502764D01*
X182710041Y-96509326D01*
X182421883Y-95794194D01*
X182356690Y-95720348D01*
X182041458Y-94961641D01*
X182044580Y-93838889D01*
X183179861Y-93838889D01*
X183356250Y-94015277D01*
X183532639Y-93838889D01*
X183356250Y-93662500D01*
X183179861Y-93838889D01*
X182044580Y-93838889D01*
X182045168Y-93627526D01*
X182113215Y-92616489D01*
X181977975Y-92066568D01*
X181511388Y-91737344D01*
X180916451Y-91508519D01*
X179969112Y-90968608D01*
X179865401Y-90861043D01*
X182637860Y-90861043D01*
X182698694Y-91334274D01*
X183056340Y-91721040D01*
X183631871Y-91969412D01*
X183832786Y-91741734D01*
X183576186Y-91204382D01*
X183407091Y-91017110D01*
X182871640Y-90703127D01*
X182637860Y-90861043D01*
X179865401Y-90861043D01*
X179228741Y-90200728D01*
X178816728Y-89386604D01*
X178854459Y-88707962D01*
X178955774Y-88573253D01*
X179386500Y-88435765D01*
X179647592Y-88716343D01*
X180028396Y-89041530D01*
X180204066Y-88994776D01*
X180191372Y-88606374D01*
X179778102Y-88114499D01*
X179189907Y-87740709D01*
X178850014Y-87665277D01*
X178109059Y-87362849D01*
X177522340Y-86651853D01*
X177304056Y-85826726D01*
X177344185Y-85595377D01*
X177333363Y-85372222D01*
X178593750Y-85372222D01*
X178770139Y-85548611D01*
X178946528Y-85372222D01*
X178770139Y-85195833D01*
X178593750Y-85372222D01*
X177333363Y-85372222D01*
X177309840Y-84887226D01*
X176870707Y-84512137D01*
X176206377Y-83918194D01*
X176035975Y-83608333D01*
X177535417Y-83608333D01*
X177711806Y-83784722D01*
X177888195Y-83608333D01*
X177711806Y-83431944D01*
X177535417Y-83608333D01*
X176035975Y-83608333D01*
X175960125Y-83470408D01*
X175467034Y-82829073D01*
X175052671Y-82620693D01*
X174507719Y-82208929D01*
X174446993Y-81613606D01*
X174287735Y-80916647D01*
X173783989Y-80630807D01*
X173187750Y-80790348D01*
X172765404Y-81384962D01*
X172572982Y-81861205D01*
X172455150Y-81757106D01*
X172341958Y-81019439D01*
X172380309Y-79986243D01*
X172836429Y-79354964D01*
X173208556Y-79021187D01*
X173041269Y-78886084D01*
X172369688Y-78857052D01*
X171425210Y-78661531D01*
X171038467Y-78266174D01*
X170950626Y-77629739D01*
X171242283Y-77472034D01*
X171614630Y-77722824D01*
X172186474Y-78151007D01*
X172399748Y-78062661D01*
X172186708Y-77584084D01*
X171883553Y-77221455D01*
X170475492Y-75780375D01*
X169169509Y-74514083D01*
X168058949Y-73507047D01*
X167237157Y-72843734D01*
X166797478Y-72608613D01*
X166787067Y-72609635D01*
X166529576Y-72385025D01*
X166525858Y-72057985D01*
X166488604Y-71642560D01*
X166047622Y-71668270D01*
X165820303Y-71748370D01*
X164785456Y-71870291D01*
X163846683Y-71554565D01*
X163308060Y-70937854D01*
X162878431Y-70424824D01*
X162375850Y-70418899D01*
X162076988Y-70867207D01*
X162077994Y-71172916D01*
X162364237Y-71786244D01*
X162984475Y-71882631D01*
X163631858Y-71998829D01*
X163777083Y-72299830D01*
X164070834Y-72799429D01*
X164482639Y-73025000D01*
X165053265Y-73359214D01*
X165188195Y-73619084D01*
X165468865Y-73837329D01*
X165915330Y-73799084D01*
X166619371Y-73863433D01*
X166863607Y-74198911D01*
X167320670Y-74929722D01*
X167635777Y-75253006D01*
X167934395Y-75566668D01*
X167679106Y-75627052D01*
X167216667Y-75566510D01*
X166491080Y-75575902D01*
X166241126Y-75807948D01*
X166060641Y-76440536D01*
X165932726Y-76678182D01*
X165609509Y-76947418D01*
X165091539Y-76787787D01*
X164703405Y-76549414D01*
X164021783Y-76237412D01*
X163767298Y-76376803D01*
X163966312Y-76838302D01*
X164529601Y-77401812D01*
X165037898Y-77957743D01*
X164996897Y-78523918D01*
X164889266Y-78745215D01*
X164701480Y-79336498D01*
X165009623Y-79794037D01*
X165371470Y-80052627D01*
X165987782Y-80410223D01*
X166218774Y-80350098D01*
X166246528Y-80088688D01*
X166414709Y-79613739D01*
X166561562Y-79551388D01*
X166970459Y-79855025D01*
X167167704Y-80599310D01*
X167089914Y-81519699D01*
X167055951Y-82203736D01*
X167354812Y-82376021D01*
X167833932Y-82647410D01*
X168463882Y-83325453D01*
X168693857Y-83640815D01*
X169214320Y-84495494D01*
X169335384Y-85067184D01*
X169108820Y-85615353D01*
X169092937Y-85640977D01*
X168818857Y-86258957D01*
X169048786Y-86675305D01*
X169203246Y-86796324D01*
X169673293Y-87471320D01*
X169774306Y-87977483D01*
X170098925Y-88733242D01*
X170681919Y-89086148D01*
X171377594Y-89552412D01*
X171417261Y-90119974D01*
X170829791Y-90720571D01*
X169771187Y-91239528D01*
X168886652Y-91495490D01*
X167733116Y-91678492D01*
X166187991Y-91799893D01*
X164128690Y-91871054D01*
X162718750Y-91893045D01*
X160245765Y-91922114D01*
X158376930Y-91953864D01*
X157010870Y-91997712D01*
X156046212Y-92063076D01*
X155381582Y-92159374D01*
X154915606Y-92296022D01*
X154546909Y-92482439D01*
X154244174Y-92680329D01*
X153437200Y-93016959D01*
X152592113Y-93078488D01*
X151962030Y-92878148D01*
X151782639Y-92551653D01*
X151485171Y-92153795D01*
X150812326Y-91885583D01*
X150093441Y-91842242D01*
X149769620Y-91969609D01*
X149264318Y-92176407D01*
X148844362Y-91840742D01*
X148453208Y-90897313D01*
X148264961Y-90232004D01*
X147890021Y-88958677D01*
X147472673Y-87770557D01*
X147334624Y-87435574D01*
X147025319Y-86367352D01*
X146855145Y-85064843D01*
X146843750Y-84689134D01*
X146731918Y-83509172D01*
X146451471Y-82506327D01*
X146322983Y-82259551D01*
X146289936Y-82185213D01*
X156960172Y-82185213D01*
X157290908Y-82879909D01*
X157444719Y-83103933D01*
X158117921Y-83881744D01*
X158606314Y-84117737D01*
X158831595Y-83781372D01*
X158838195Y-83647415D01*
X158807519Y-83549537D01*
X159661343Y-83549537D01*
X159709768Y-83759263D01*
X159896528Y-83784722D01*
X160186904Y-83655646D01*
X160131713Y-83549537D01*
X159713048Y-83507316D01*
X159661343Y-83549537D01*
X158807519Y-83549537D01*
X158627778Y-82976054D01*
X158131988Y-82304858D01*
X157554008Y-81851389D01*
X157125052Y-81813081D01*
X156960172Y-82185213D01*
X146289936Y-82185213D01*
X146100773Y-81759712D01*
X145962295Y-80994412D01*
X145898809Y-79842538D01*
X145901571Y-78182979D01*
X145924188Y-77211356D01*
X159840701Y-77211356D01*
X160067252Y-77644639D01*
X160788223Y-78449362D01*
X160989173Y-78654699D01*
X161895927Y-79568558D01*
X162413221Y-80050746D01*
X162650209Y-80168781D01*
X162716047Y-79990182D01*
X162718750Y-79724567D01*
X162453364Y-79058045D01*
X161806295Y-78252064D01*
X161001175Y-77529657D01*
X160832324Y-77434722D01*
X162718750Y-77434722D01*
X162987205Y-77777248D01*
X163071528Y-77787500D01*
X163414054Y-77519045D01*
X163424306Y-77434722D01*
X163155851Y-77092195D01*
X163071528Y-77081944D01*
X162729001Y-77350399D01*
X162718750Y-77434722D01*
X160832324Y-77434722D01*
X160261638Y-77113859D01*
X160069036Y-77081944D01*
X159840701Y-77211356D01*
X145924188Y-77211356D01*
X145932576Y-76851026D01*
X145987847Y-75558922D01*
X163342848Y-75558922D01*
X164177327Y-75467887D01*
X165070205Y-75370678D01*
X165540972Y-75319602D01*
X165839916Y-75213897D01*
X165626969Y-75083685D01*
X165340739Y-74736843D01*
X165383205Y-74582369D01*
X165427962Y-74286799D01*
X165034984Y-74371015D01*
X164336122Y-74798409D01*
X164177327Y-74917166D01*
X163342848Y-75558922D01*
X145987847Y-75558922D01*
X146009142Y-75061112D01*
X146072398Y-74197240D01*
X163507942Y-74197240D01*
X163659491Y-74377314D01*
X164088447Y-74603068D01*
X164368545Y-74506238D01*
X164324872Y-74289853D01*
X164399643Y-73899599D01*
X164568635Y-73796641D01*
X164631502Y-73682209D01*
X164218056Y-73665194D01*
X163528420Y-73824243D01*
X163507942Y-74197240D01*
X146072398Y-74197240D01*
X146124774Y-73481966D01*
X146264568Y-72271583D01*
X146413618Y-71587957D01*
X146433104Y-71545627D01*
X146770053Y-70647711D01*
X146930394Y-69904712D01*
X147282450Y-69069177D01*
X164186728Y-69069177D01*
X164272563Y-69266326D01*
X164627772Y-69645049D01*
X164831983Y-69567359D01*
X164835417Y-69518042D01*
X164584846Y-69219656D01*
X164428132Y-69110757D01*
X164186728Y-69069177D01*
X147282450Y-69069177D01*
X147309967Y-69003872D01*
X147920772Y-68358835D01*
X148981193Y-67545144D01*
X149621929Y-66795628D01*
X150020954Y-65963647D01*
X150282177Y-65422821D01*
X150669028Y-65160295D01*
X151390657Y-65100340D01*
X152286491Y-65143329D01*
X153493730Y-65166293D01*
X154284796Y-64996069D01*
X154449564Y-64886174D01*
X159274706Y-64886174D01*
X159354492Y-65224488D01*
X159745892Y-65609092D01*
X160539197Y-66083475D01*
X160920224Y-65998508D01*
X160954861Y-65805467D01*
X160686163Y-65399307D01*
X160094328Y-65014786D01*
X159500750Y-64827754D01*
X159274706Y-64886174D01*
X154449564Y-64886174D01*
X154938710Y-64559931D01*
X155105139Y-64408644D01*
X155788839Y-63599940D01*
X155993733Y-62970965D01*
X155694397Y-62641007D01*
X155486806Y-62618055D01*
X155017340Y-62427565D01*
X154957639Y-62265277D01*
X155115279Y-61939806D01*
X155616203Y-62134892D01*
X156502415Y-62868467D01*
X156614201Y-62972465D01*
X157469438Y-63726137D01*
X157942208Y-63997163D01*
X158122199Y-63827182D01*
X158132639Y-63677405D01*
X157880239Y-63122532D01*
X157250367Y-62339081D01*
X156434013Y-61516395D01*
X155622167Y-60843818D01*
X155005820Y-60510693D01*
X154929001Y-60501389D01*
X154255569Y-60217874D01*
X153899306Y-59795833D01*
X153442549Y-59236340D01*
X153120922Y-59090277D01*
X152569122Y-58872515D01*
X152072571Y-58504236D01*
X151258412Y-57865120D01*
X150744432Y-57534097D01*
X148784665Y-56406325D01*
X147357906Y-55537484D01*
X146494999Y-54947343D01*
X146226791Y-54655672D01*
X146234060Y-54643486D01*
X146641973Y-54709686D01*
G37*
X146641973Y-54709686D02*
X147581391Y-55134595D01*
X148994412Y-55889096D01*
X150823135Y-56944075D01*
X150900695Y-56990083D01*
X153516679Y-58686593D01*
X156392820Y-60796842D01*
X159356371Y-63177431D01*
X162234590Y-65684958D01*
X164854731Y-68176023D01*
X166658005Y-70070736D01*
X167767958Y-71286125D01*
X169230734Y-72859196D01*
X170907203Y-74641868D01*
X172658240Y-76486062D01*
X174038487Y-77926163D01*
X176607349Y-80603785D01*
X178732304Y-82853377D01*
X180466451Y-84747706D01*
X181862887Y-86359538D01*
X182974707Y-87761640D01*
X183855011Y-89026777D01*
X184556894Y-90227717D01*
X185133454Y-91437227D01*
X185637787Y-92728071D01*
X186122992Y-94173017D01*
X186297386Y-94726266D01*
X187039763Y-97187951D01*
X187568413Y-99190146D01*
X187917175Y-100934059D01*
X188119885Y-102620897D01*
X188210382Y-104451866D01*
X188224638Y-106186111D01*
X188195674Y-108174781D01*
X188105574Y-109656379D01*
X187928984Y-110828482D01*
X187640550Y-111888664D01*
X187409758Y-112536111D01*
X186020690Y-115443264D01*
X184206853Y-118072621D01*
X182674366Y-119708571D01*
X181533396Y-120705330D01*
X180243685Y-121746587D01*
X178941994Y-122732218D01*
X177765088Y-123562099D01*
X176849727Y-124136107D01*
X176332677Y-124354118D01*
X176328777Y-124354166D01*
X175803488Y-124476119D01*
X174835951Y-124795620D01*
X173652791Y-125236922D01*
X172364052Y-125646719D01*
X170541919Y-126094158D01*
X168354570Y-126542011D01*
X165970184Y-126953049D01*
X165736594Y-126989281D01*
X163018452Y-127401389D01*
X160283303Y-127806602D01*
X157650602Y-128188031D01*
X155239804Y-128528787D01*
X153170364Y-128811980D01*
X151561735Y-129020722D01*
X150547917Y-129136738D01*
X149751566Y-129214795D01*
X148459567Y-129343277D01*
X146878244Y-129501614D01*
X145809793Y-129609103D01*
X144187874Y-129745803D01*
X142756716Y-129817841D01*
X141707158Y-129818194D01*
X141311876Y-129774682D01*
X140646400Y-129757410D01*
X140493750Y-130005455D01*
X140284905Y-130258839D01*
X139582060Y-130262942D01*
X138994444Y-130172792D01*
X137663488Y-129963576D01*
X136784151Y-129921455D01*
X136122770Y-130045618D01*
X135819444Y-130161748D01*
X135301124Y-130224605D01*
X135202083Y-130036354D01*
X134869489Y-129801754D01*
X133943129Y-129668559D01*
X133159443Y-129645833D01*
X131926752Y-129595605D01*
X130255154Y-129460352D01*
X128402956Y-129263215D01*
X127250415Y-129116404D01*
X125431929Y-128876992D01*
X123645610Y-128658237D01*
X122143414Y-128490229D01*
X121443750Y-128422917D01*
X119945288Y-128286833D01*
X118402819Y-128132698D01*
X117827778Y-128070401D01*
X116347398Y-127903808D01*
X114791804Y-127728605D01*
X114476389Y-127693058D01*
X113246421Y-127571808D01*
X111664850Y-127439014D01*
X110154861Y-127329025D01*
X108394940Y-127126851D01*
X106491988Y-126778235D01*
X105114026Y-126430544D01*
X103469825Y-126039777D01*
X101563441Y-125739802D01*
X99998748Y-125606759D01*
X98131039Y-125488347D01*
X96885540Y-125297933D01*
X96287830Y-125042329D01*
X96363486Y-124728344D01*
X96455143Y-124663252D01*
X97150428Y-124435092D01*
X97891801Y-124359568D01*
X98813972Y-124175727D01*
X99813642Y-123575980D01*
X101034353Y-122472372D01*
X101131054Y-122374724D01*
X101909593Y-121747768D01*
X102972814Y-121077416D01*
X103339953Y-120880460D01*
X104267301Y-120360179D01*
X104906271Y-119911308D01*
X105036468Y-119773096D01*
X105473545Y-119498511D01*
X106097411Y-119423672D01*
X106562072Y-119563514D01*
X106627083Y-119704437D01*
X106340625Y-120238387D01*
X105669075Y-120809796D01*
X104894169Y-121225581D01*
X104305221Y-121295686D01*
X103884975Y-121279102D01*
X103878227Y-121745054D01*
X104177475Y-122255674D01*
X104443174Y-122325694D01*
X104794780Y-122544466D01*
X104940609Y-123231447D01*
X104904971Y-123736805D01*
X105178801Y-123924618D01*
X105883785Y-124001389D01*
X106710379Y-124170889D01*
X107107435Y-124530555D01*
X107581880Y-124924417D01*
X108309345Y-125059722D01*
X109167374Y-125178161D01*
X109667475Y-125419002D01*
X110160168Y-125631415D01*
X111188898Y-125906220D01*
X112590581Y-126210707D01*
X114202136Y-126512167D01*
X115860482Y-126777893D01*
X117402537Y-126975176D01*
X117452987Y-126980501D01*
X119083586Y-127208809D01*
X121046430Y-127566091D01*
X122996210Y-127984519D01*
X124437403Y-128352430D01*
X125737146Y-128586956D01*
X127627932Y-128739248D01*
X130000676Y-128814417D01*
X132746293Y-128817573D01*
X135755697Y-128753826D01*
X138919803Y-128628287D01*
X142129526Y-128446066D01*
X145275780Y-128212273D01*
X148249482Y-127932018D01*
X150941544Y-127610413D01*
X153242882Y-127252567D01*
X154781250Y-126930918D01*
X156320549Y-126581027D01*
X157936094Y-126258399D01*
X158744916Y-126118313D01*
X160476294Y-125764002D01*
X161951626Y-125308353D01*
X163046599Y-124803621D01*
X163636902Y-124302055D01*
X163699555Y-124035737D01*
X163309592Y-123578674D01*
X162890308Y-123484025D01*
X162099619Y-123276795D01*
X161881033Y-122680377D01*
X162066796Y-122137345D01*
X162391667Y-121754093D01*
X162887394Y-121644852D01*
X163656437Y-121836737D01*
X164801255Y-122356862D01*
X166424307Y-123232342D01*
X166620094Y-123342299D01*
X168054890Y-124107718D01*
X169144496Y-124555151D01*
X170128554Y-124761298D01*
X171185417Y-124803496D01*
X173137507Y-124570309D01*
X174895981Y-123958704D01*
X176279234Y-123049044D01*
X176939333Y-122257284D01*
X177335450Y-120995698D01*
X177343296Y-119358367D01*
X177208562Y-118709722D01*
X181063195Y-118709722D01*
X181331650Y-119052248D01*
X181415972Y-119062500D01*
X181758499Y-118794045D01*
X181768750Y-118709722D01*
X181500295Y-118367195D01*
X181415972Y-118356944D01*
X181073446Y-118625399D01*
X181063195Y-118709722D01*
X177208562Y-118709722D01*
X176968664Y-117554803D01*
X176795259Y-117046516D01*
X176660882Y-116315265D01*
X176874088Y-116098270D01*
X177266445Y-116428599D01*
X177518319Y-116904554D01*
X178153171Y-117888144D01*
X178947807Y-118367098D01*
X179747132Y-118278655D01*
X180134455Y-117963220D01*
X180916804Y-117385008D01*
X181760255Y-117071004D01*
X182710515Y-116643068D01*
X183342809Y-116034891D01*
X183796051Y-115258956D01*
X183810740Y-114924388D01*
X183444444Y-114917361D01*
X183127305Y-114715156D01*
X183114724Y-114300000D01*
X183195523Y-113360193D01*
X183202097Y-112743026D01*
X183364154Y-111878222D01*
X183793467Y-110856315D01*
X183884596Y-110694389D01*
X184320111Y-109741628D01*
X184559422Y-108797135D01*
X184571405Y-108071108D01*
X184324938Y-107773742D01*
X184317066Y-107773611D01*
X184167564Y-107474732D01*
X184153170Y-106755737D01*
X184246442Y-105883083D01*
X184419942Y-105123229D01*
X184628237Y-104751969D01*
X184870418Y-104262990D01*
X184952979Y-103389274D01*
X184890348Y-102414726D01*
X184696953Y-101623253D01*
X184453370Y-101310921D01*
X183856424Y-100771496D01*
X183318733Y-99767922D01*
X182942825Y-98540279D01*
X182827083Y-97502764D01*
X182710041Y-96509326D01*
X182421883Y-95794194D01*
X182356690Y-95720348D01*
X182041458Y-94961641D01*
X182044580Y-93838889D01*
X183179861Y-93838889D01*
X183356250Y-94015277D01*
X183532639Y-93838889D01*
X183356250Y-93662500D01*
X183179861Y-93838889D01*
X182044580Y-93838889D01*
X182045168Y-93627526D01*
X182113215Y-92616489D01*
X181977975Y-92066568D01*
X181511388Y-91737344D01*
X180916451Y-91508519D01*
X179969112Y-90968608D01*
X179865401Y-90861043D01*
X182637860Y-90861043D01*
X182698694Y-91334274D01*
X183056340Y-91721040D01*
X183631871Y-91969412D01*
X183832786Y-91741734D01*
X183576186Y-91204382D01*
X183407091Y-91017110D01*
X182871640Y-90703127D01*
X182637860Y-90861043D01*
X179865401Y-90861043D01*
X179228741Y-90200728D01*
X178816728Y-89386604D01*
X178854459Y-88707962D01*
X178955774Y-88573253D01*
X179386500Y-88435765D01*
X179647592Y-88716343D01*
X180028396Y-89041530D01*
X180204066Y-88994776D01*
X180191372Y-88606374D01*
X179778102Y-88114499D01*
X179189907Y-87740709D01*
X178850014Y-87665277D01*
X178109059Y-87362849D01*
X177522340Y-86651853D01*
X177304056Y-85826726D01*
X177344185Y-85595377D01*
X177333363Y-85372222D01*
X178593750Y-85372222D01*
X178770139Y-85548611D01*
X178946528Y-85372222D01*
X178770139Y-85195833D01*
X178593750Y-85372222D01*
X177333363Y-85372222D01*
X177309840Y-84887226D01*
X176870707Y-84512137D01*
X176206377Y-83918194D01*
X176035975Y-83608333D01*
X177535417Y-83608333D01*
X177711806Y-83784722D01*
X177888195Y-83608333D01*
X177711806Y-83431944D01*
X177535417Y-83608333D01*
X176035975Y-83608333D01*
X175960125Y-83470408D01*
X175467034Y-82829073D01*
X175052671Y-82620693D01*
X174507719Y-82208929D01*
X174446993Y-81613606D01*
X174287735Y-80916647D01*
X173783989Y-80630807D01*
X173187750Y-80790348D01*
X172765404Y-81384962D01*
X172572982Y-81861205D01*
X172455150Y-81757106D01*
X172341958Y-81019439D01*
X172380309Y-79986243D01*
X172836429Y-79354964D01*
X173208556Y-79021187D01*
X173041269Y-78886084D01*
X172369688Y-78857052D01*
X171425210Y-78661531D01*
X171038467Y-78266174D01*
X170950626Y-77629739D01*
X171242283Y-77472034D01*
X171614630Y-77722824D01*
X172186474Y-78151007D01*
X172399748Y-78062661D01*
X172186708Y-77584084D01*
X171883553Y-77221455D01*
X170475492Y-75780375D01*
X169169509Y-74514083D01*
X168058949Y-73507047D01*
X167237157Y-72843734D01*
X166797478Y-72608613D01*
X166787067Y-72609635D01*
X166529576Y-72385025D01*
X166525858Y-72057985D01*
X166488604Y-71642560D01*
X166047622Y-71668270D01*
X165820303Y-71748370D01*
X164785456Y-71870291D01*
X163846683Y-71554565D01*
X163308060Y-70937854D01*
X162878431Y-70424824D01*
X162375850Y-70418899D01*
X162076988Y-70867207D01*
X162077994Y-71172916D01*
X162364237Y-71786244D01*
X162984475Y-71882631D01*
X163631858Y-71998829D01*
X163777083Y-72299830D01*
X164070834Y-72799429D01*
X164482639Y-73025000D01*
X165053265Y-73359214D01*
X165188195Y-73619084D01*
X165468865Y-73837329D01*
X165915330Y-73799084D01*
X166619371Y-73863433D01*
X166863607Y-74198911D01*
X167320670Y-74929722D01*
X167635777Y-75253006D01*
X167934395Y-75566668D01*
X167679106Y-75627052D01*
X167216667Y-75566510D01*
X166491080Y-75575902D01*
X166241126Y-75807948D01*
X166060641Y-76440536D01*
X165932726Y-76678182D01*
X165609509Y-76947418D01*
X165091539Y-76787787D01*
X164703405Y-76549414D01*
X164021783Y-76237412D01*
X163767298Y-76376803D01*
X163966312Y-76838302D01*
X164529601Y-77401812D01*
X165037898Y-77957743D01*
X164996897Y-78523918D01*
X164889266Y-78745215D01*
X164701480Y-79336498D01*
X165009623Y-79794037D01*
X165371470Y-80052627D01*
X165987782Y-80410223D01*
X166218774Y-80350098D01*
X166246528Y-80088688D01*
X166414709Y-79613739D01*
X166561562Y-79551388D01*
X166970459Y-79855025D01*
X167167704Y-80599310D01*
X167089914Y-81519699D01*
X167055951Y-82203736D01*
X167354812Y-82376021D01*
X167833932Y-82647410D01*
X168463882Y-83325453D01*
X168693857Y-83640815D01*
X169214320Y-84495494D01*
X169335384Y-85067184D01*
X169108820Y-85615353D01*
X169092937Y-85640977D01*
X168818857Y-86258957D01*
X169048786Y-86675305D01*
X169203246Y-86796324D01*
X169673293Y-87471320D01*
X169774306Y-87977483D01*
X170098925Y-88733242D01*
X170681919Y-89086148D01*
X171377594Y-89552412D01*
X171417261Y-90119974D01*
X170829791Y-90720571D01*
X169771187Y-91239528D01*
X168886652Y-91495490D01*
X167733116Y-91678492D01*
X166187991Y-91799893D01*
X164128690Y-91871054D01*
X162718750Y-91893045D01*
X160245765Y-91922114D01*
X158376930Y-91953864D01*
X157010870Y-91997712D01*
X156046212Y-92063076D01*
X155381582Y-92159374D01*
X154915606Y-92296022D01*
X154546909Y-92482439D01*
X154244174Y-92680329D01*
X153437200Y-93016959D01*
X152592113Y-93078488D01*
X151962030Y-92878148D01*
X151782639Y-92551653D01*
X151485171Y-92153795D01*
X150812326Y-91885583D01*
X150093441Y-91842242D01*
X149769620Y-91969609D01*
X149264318Y-92176407D01*
X148844362Y-91840742D01*
X148453208Y-90897313D01*
X148264961Y-90232004D01*
X147890021Y-88958677D01*
X147472673Y-87770557D01*
X147334624Y-87435574D01*
X147025319Y-86367352D01*
X146855145Y-85064843D01*
X146843750Y-84689134D01*
X146731918Y-83509172D01*
X146451471Y-82506327D01*
X146322983Y-82259551D01*
X146289936Y-82185213D01*
X156960172Y-82185213D01*
X157290908Y-82879909D01*
X157444719Y-83103933D01*
X158117921Y-83881744D01*
X158606314Y-84117737D01*
X158831595Y-83781372D01*
X158838195Y-83647415D01*
X158807519Y-83549537D01*
X159661343Y-83549537D01*
X159709768Y-83759263D01*
X159896528Y-83784722D01*
X160186904Y-83655646D01*
X160131713Y-83549537D01*
X159713048Y-83507316D01*
X159661343Y-83549537D01*
X158807519Y-83549537D01*
X158627778Y-82976054D01*
X158131988Y-82304858D01*
X157554008Y-81851389D01*
X157125052Y-81813081D01*
X156960172Y-82185213D01*
X146289936Y-82185213D01*
X146100773Y-81759712D01*
X145962295Y-80994412D01*
X145898809Y-79842538D01*
X145901571Y-78182979D01*
X145924188Y-77211356D01*
X159840701Y-77211356D01*
X160067252Y-77644639D01*
X160788223Y-78449362D01*
X160989173Y-78654699D01*
X161895927Y-79568558D01*
X162413221Y-80050746D01*
X162650209Y-80168781D01*
X162716047Y-79990182D01*
X162718750Y-79724567D01*
X162453364Y-79058045D01*
X161806295Y-78252064D01*
X161001175Y-77529657D01*
X160832324Y-77434722D01*
X162718750Y-77434722D01*
X162987205Y-77777248D01*
X163071528Y-77787500D01*
X163414054Y-77519045D01*
X163424306Y-77434722D01*
X163155851Y-77092195D01*
X163071528Y-77081944D01*
X162729001Y-77350399D01*
X162718750Y-77434722D01*
X160832324Y-77434722D01*
X160261638Y-77113859D01*
X160069036Y-77081944D01*
X159840701Y-77211356D01*
X145924188Y-77211356D01*
X145932576Y-76851026D01*
X145987847Y-75558922D01*
X163342848Y-75558922D01*
X164177327Y-75467887D01*
X165070205Y-75370678D01*
X165540972Y-75319602D01*
X165839916Y-75213897D01*
X165626969Y-75083685D01*
X165340739Y-74736843D01*
X165383205Y-74582369D01*
X165427962Y-74286799D01*
X165034984Y-74371015D01*
X164336122Y-74798409D01*
X164177327Y-74917166D01*
X163342848Y-75558922D01*
X145987847Y-75558922D01*
X146009142Y-75061112D01*
X146072398Y-74197240D01*
X163507942Y-74197240D01*
X163659491Y-74377314D01*
X164088447Y-74603068D01*
X164368545Y-74506238D01*
X164324872Y-74289853D01*
X164399643Y-73899599D01*
X164568635Y-73796641D01*
X164631502Y-73682209D01*
X164218056Y-73665194D01*
X163528420Y-73824243D01*
X163507942Y-74197240D01*
X146072398Y-74197240D01*
X146124774Y-73481966D01*
X146264568Y-72271583D01*
X146413618Y-71587957D01*
X146433104Y-71545627D01*
X146770053Y-70647711D01*
X146930394Y-69904712D01*
X147282450Y-69069177D01*
X164186728Y-69069177D01*
X164272563Y-69266326D01*
X164627772Y-69645049D01*
X164831983Y-69567359D01*
X164835417Y-69518042D01*
X164584846Y-69219656D01*
X164428132Y-69110757D01*
X164186728Y-69069177D01*
X147282450Y-69069177D01*
X147309967Y-69003872D01*
X147920772Y-68358835D01*
X148981193Y-67545144D01*
X149621929Y-66795628D01*
X150020954Y-65963647D01*
X150282177Y-65422821D01*
X150669028Y-65160295D01*
X151390657Y-65100340D01*
X152286491Y-65143329D01*
X153493730Y-65166293D01*
X154284796Y-64996069D01*
X154449564Y-64886174D01*
X159274706Y-64886174D01*
X159354492Y-65224488D01*
X159745892Y-65609092D01*
X160539197Y-66083475D01*
X160920224Y-65998508D01*
X160954861Y-65805467D01*
X160686163Y-65399307D01*
X160094328Y-65014786D01*
X159500750Y-64827754D01*
X159274706Y-64886174D01*
X154449564Y-64886174D01*
X154938710Y-64559931D01*
X155105139Y-64408644D01*
X155788839Y-63599940D01*
X155993733Y-62970965D01*
X155694397Y-62641007D01*
X155486806Y-62618055D01*
X155017340Y-62427565D01*
X154957639Y-62265277D01*
X155115279Y-61939806D01*
X155616203Y-62134892D01*
X156502415Y-62868467D01*
X156614201Y-62972465D01*
X157469438Y-63726137D01*
X157942208Y-63997163D01*
X158122199Y-63827182D01*
X158132639Y-63677405D01*
X157880239Y-63122532D01*
X157250367Y-62339081D01*
X156434013Y-61516395D01*
X155622167Y-60843818D01*
X155005820Y-60510693D01*
X154929001Y-60501389D01*
X154255569Y-60217874D01*
X153899306Y-59795833D01*
X153442549Y-59236340D01*
X153120922Y-59090277D01*
X152569122Y-58872515D01*
X152072571Y-58504236D01*
X151258412Y-57865120D01*
X150744432Y-57534097D01*
X148784665Y-56406325D01*
X147357906Y-55537484D01*
X146494999Y-54947343D01*
X146226791Y-54655672D01*
X146234060Y-54643486D01*
X146641973Y-54709686D01*
G36*
X118974306Y-129822222D02*
G01*
X118797917Y-129998611D01*
X118621528Y-129822222D01*
X118797917Y-129645833D01*
X118974306Y-129822222D01*
G37*
X118974306Y-129822222D02*
X118797917Y-129998611D01*
X118621528Y-129822222D01*
X118797917Y-129645833D01*
X118974306Y-129822222D01*
G36*
X110345183Y-127995861D02*
G01*
X111583034Y-128112583D01*
X112239605Y-128210350D01*
X113689684Y-128458854D01*
X114563483Y-128642092D01*
X114981242Y-128807369D01*
X115063198Y-129001992D01*
X114931867Y-129269584D01*
X114400239Y-129586262D01*
X113656513Y-129616907D01*
X113223821Y-129422201D01*
X112728413Y-129201019D01*
X112194886Y-129088310D01*
X111348192Y-128950100D01*
X110199736Y-128737074D01*
X109802083Y-128658499D01*
X108858990Y-128414758D01*
X108531421Y-128210138D01*
X108729709Y-128061125D01*
X109364186Y-127984204D01*
X110345183Y-127995861D01*
G37*
X110345183Y-127995861D02*
X111583034Y-128112583D01*
X112239605Y-128210350D01*
X113689684Y-128458854D01*
X114563483Y-128642092D01*
X114981242Y-128807369D01*
X115063198Y-129001992D01*
X114931867Y-129269584D01*
X114400239Y-129586262D01*
X113656513Y-129616907D01*
X113223821Y-129422201D01*
X112728413Y-129201019D01*
X112194886Y-129088310D01*
X111348192Y-128950100D01*
X110199736Y-128737074D01*
X109802083Y-128658499D01*
X108858990Y-128414758D01*
X108531421Y-128210138D01*
X108729709Y-128061125D01*
X109364186Y-127984204D01*
X110345183Y-127995861D01*
G36*
X116762095Y-129432696D02*
G01*
X116656883Y-129593038D01*
X116299074Y-129617982D01*
X115922648Y-129531827D01*
X116085938Y-129404845D01*
X116637287Y-129362789D01*
X116762095Y-129432696D01*
G37*
X116762095Y-129432696D02*
X116656883Y-129593038D01*
X116299074Y-129617982D01*
X115922648Y-129531827D01*
X116085938Y-129404845D01*
X116637287Y-129362789D01*
X116762095Y-129432696D01*
G36*
X107383274Y-127744167D02*
G01*
X107509028Y-127881944D01*
X107401013Y-128159612D01*
X107000681Y-128234722D01*
X106416219Y-128090790D01*
X106274306Y-127881944D01*
X106558532Y-127565531D01*
X106782652Y-127529166D01*
X107383274Y-127744167D01*
G37*
X107383274Y-127744167D02*
X107509028Y-127881944D01*
X107401013Y-128159612D01*
X107000681Y-128234722D01*
X106416219Y-128090790D01*
X106274306Y-127881944D01*
X106558532Y-127565531D01*
X106782652Y-127529166D01*
X107383274Y-127744167D01*
G36*
X105120428Y-127668807D02*
G01*
X105015216Y-127829149D01*
X104657407Y-127854093D01*
X104280982Y-127767938D01*
X104444271Y-127640957D01*
X104995620Y-127598900D01*
X105120428Y-127668807D01*
G37*
X105120428Y-127668807D02*
X105015216Y-127829149D01*
X104657407Y-127854093D01*
X104280982Y-127767938D01*
X104444271Y-127640957D01*
X104995620Y-127598900D01*
X105120428Y-127668807D01*
G36*
X103286992Y-127053150D02*
G01*
X103767474Y-127329037D01*
X103562163Y-127496196D01*
X103078486Y-127529166D01*
X102586630Y-127398920D01*
X102560617Y-127191796D01*
X103019543Y-126999609D01*
X103286992Y-127053150D01*
G37*
X103286992Y-127053150D02*
X103767474Y-127329037D01*
X103562163Y-127496196D01*
X103078486Y-127529166D01*
X102586630Y-127398920D01*
X102560617Y-127191796D01*
X103019543Y-126999609D01*
X103286992Y-127053150D01*
G36*
X126501368Y-53225791D02*
G01*
X126109784Y-53427696D01*
X126058254Y-53450151D01*
X125494036Y-53800269D01*
X125549839Y-54159518D01*
X125617282Y-54232698D01*
X125979172Y-54750208D01*
X125963098Y-55061423D01*
X125588889Y-54972456D01*
X124949094Y-54742895D01*
X124146787Y-54646477D01*
X123470532Y-54694322D01*
X123207639Y-54880696D01*
X123477100Y-55274412D01*
X123822061Y-55518511D01*
X124202965Y-55907926D01*
X124158795Y-56140047D01*
X123682023Y-56195238D01*
X123196382Y-55990117D01*
X122487909Y-55612828D01*
X122188999Y-55672098D01*
X122149306Y-55915277D01*
X122435040Y-56228255D01*
X122678472Y-56268055D01*
X123153952Y-56455296D01*
X123149835Y-56872211D01*
X122732510Y-57301591D01*
X122309471Y-57475326D01*
X121360567Y-57572131D01*
X120949367Y-57232055D01*
X120988847Y-56620482D01*
X121031432Y-56029939D01*
X120695127Y-56026556D01*
X119977142Y-56611520D01*
X119260490Y-57355787D01*
X118329172Y-58238265D01*
X117669056Y-58568540D01*
X117488881Y-58533950D01*
X117205891Y-58429784D01*
X117254177Y-58518914D01*
X117186310Y-58912060D01*
X116745868Y-59585883D01*
X116564820Y-59802717D01*
X115891027Y-60446321D01*
X115477490Y-60511559D01*
X115379934Y-60405716D01*
X115160021Y-60276216D01*
X115099152Y-60695416D01*
X114908651Y-61489525D01*
X114689945Y-61822416D01*
X114559282Y-62161175D01*
X115042696Y-62412731D01*
X115224772Y-62461803D01*
X116200890Y-62576648D01*
X116862948Y-62514450D01*
X117518211Y-62502835D01*
X117763608Y-62656928D01*
X118112057Y-62889251D01*
X118412676Y-62536406D01*
X118595797Y-61718444D01*
X118609898Y-61422575D01*
X119815759Y-61422575D01*
X119872725Y-62183881D01*
X119938497Y-62353472D01*
X120274827Y-62656715D01*
X120569498Y-62371989D01*
X120729907Y-61615037D01*
X120738195Y-61353935D01*
X120639021Y-60462790D01*
X120335748Y-60227756D01*
X120297222Y-60238350D01*
X119977128Y-60656912D01*
X119815759Y-61422575D01*
X118609898Y-61422575D01*
X118621528Y-61178561D01*
X118708065Y-60195779D01*
X119054507Y-59642973D01*
X119513042Y-59374506D01*
X120298305Y-59145107D01*
X120813322Y-59377098D01*
X120818319Y-59382069D01*
X121460339Y-59691177D01*
X122219861Y-59795833D01*
X122709116Y-59807268D01*
X123017875Y-59928711D01*
X123185068Y-60290866D01*
X123249623Y-61024439D01*
X123250472Y-62260134D01*
X123237723Y-63213273D01*
X123266915Y-64487184D01*
X123375971Y-65466806D01*
X123541997Y-65955373D01*
X123558275Y-65968121D01*
X123846769Y-65871451D01*
X123913195Y-65531653D01*
X124170389Y-64694566D01*
X124782672Y-64125309D01*
X125178432Y-64029166D01*
X125512034Y-64337031D01*
X125751239Y-65083774D01*
X125760153Y-65140779D01*
X125699171Y-66224881D01*
X125182832Y-66988126D01*
X124375606Y-67941353D01*
X123882782Y-68826140D01*
X123781527Y-69478257D01*
X123919267Y-69677364D01*
X124040428Y-70044133D01*
X123760548Y-70359462D01*
X123427135Y-70751081D01*
X123622759Y-71138966D01*
X123893171Y-71386655D01*
X124201972Y-71715991D01*
X124375993Y-72149257D01*
X124429889Y-72841901D01*
X124378317Y-73949367D01*
X124263842Y-75318055D01*
X124094047Y-76896039D01*
X123892446Y-78301834D01*
X123691973Y-79320437D01*
X123607070Y-79605429D01*
X123356652Y-80454671D01*
X123071551Y-81699007D01*
X122865179Y-82780429D01*
X122116686Y-85476007D01*
X120783670Y-88369525D01*
X120384235Y-89076389D01*
X120079663Y-89813937D01*
X119865476Y-90595872D01*
X119506627Y-91373992D01*
X119050714Y-91525387D01*
X118155957Y-91513653D01*
X117797804Y-91786112D01*
X117816133Y-92357176D01*
X117837864Y-92882920D01*
X117518943Y-93137373D01*
X116686110Y-93244031D01*
X116561100Y-93251724D01*
X115621484Y-93229543D01*
X115019471Y-93071780D01*
X114947731Y-93006084D01*
X114463588Y-92593018D01*
X113578591Y-92075052D01*
X112556613Y-91583810D01*
X111661531Y-91250915D01*
X111290526Y-91181836D01*
X110536157Y-90967505D01*
X109999240Y-90652669D01*
X109148079Y-90274553D01*
X108211091Y-90134722D01*
X107346085Y-89978810D01*
X106122572Y-89569273D01*
X104799770Y-88993403D01*
X104751599Y-88969696D01*
X103541289Y-88337793D01*
X102893617Y-87896274D01*
X102717969Y-87568936D01*
X102835582Y-87358447D01*
X103066036Y-86920218D01*
X102693911Y-86482678D01*
X102658333Y-86456109D01*
X102194948Y-85924306D01*
X102071550Y-85159936D01*
X102277456Y-83997819D01*
X102457898Y-83356950D01*
X102576757Y-82814583D01*
X110873104Y-82814583D01*
X111047750Y-83076819D01*
X111525916Y-82849931D01*
X112016737Y-82369578D01*
X112482522Y-81603454D01*
X112622553Y-81046661D01*
X112517104Y-80773423D01*
X112153885Y-81031753D01*
X111753296Y-81491666D01*
X111191975Y-82235289D01*
X110889304Y-82750359D01*
X110873104Y-82814583D01*
X102576757Y-82814583D01*
X102667860Y-82398870D01*
X102517270Y-81797330D01*
X101895312Y-81423779D01*
X100691167Y-81149664D01*
X100531507Y-81122272D01*
X99529849Y-81045333D01*
X98883723Y-81296901D01*
X98566424Y-81606681D01*
X97789263Y-82136537D01*
X96939163Y-82218165D01*
X96318891Y-81844444D01*
X96093572Y-81900526D01*
X95866187Y-82493220D01*
X95831372Y-82650443D01*
X95628346Y-83374213D01*
X95435141Y-83636749D01*
X95411484Y-83622826D01*
X95097039Y-83721334D01*
X94764253Y-84094369D01*
X94477060Y-85003031D01*
X94766085Y-85847822D01*
X95513180Y-86439705D01*
X96332869Y-86604192D01*
X97126624Y-86672613D01*
X97405274Y-86965719D01*
X97390062Y-87400694D01*
X97103819Y-88014021D01*
X96483581Y-88110409D01*
X95868490Y-88189140D01*
X95690972Y-88414253D01*
X95376213Y-88642175D01*
X94453543Y-88569938D01*
X94425577Y-88564743D01*
X93606016Y-88447791D01*
X93309781Y-88570432D01*
X93374992Y-89004027D01*
X93381594Y-89024960D01*
X93399127Y-89690796D01*
X93214117Y-89962913D01*
X92791952Y-90459728D01*
X92517648Y-91012258D01*
X92009390Y-91650288D01*
X91019761Y-92380783D01*
X90246353Y-92815577D01*
X89023953Y-93522489D01*
X88398881Y-94123327D01*
X88271035Y-94529948D01*
X88025981Y-95171096D01*
X87408949Y-96046127D01*
X86870308Y-96641069D01*
X86026207Y-97586704D01*
X85669999Y-98295650D01*
X85683212Y-98837080D01*
X85677825Y-99513909D01*
X85135740Y-99979160D01*
X84967273Y-100060276D01*
X84231751Y-100648204D01*
X84049306Y-101437154D01*
X83909976Y-102424558D01*
X83570863Y-103538424D01*
X83534127Y-103628775D01*
X83250264Y-104472953D01*
X83195668Y-105011812D01*
X83223378Y-105066202D01*
X83433913Y-105614757D01*
X83505951Y-106504215D01*
X83449764Y-107449887D01*
X83275624Y-108167084D01*
X83103966Y-108375920D01*
X82795012Y-108854178D01*
X82650602Y-109998145D01*
X82638195Y-110633576D01*
X82575060Y-111885650D01*
X82397818Y-112591422D01*
X82245361Y-112712500D01*
X82063103Y-113014027D01*
X82039882Y-113764425D01*
X82147093Y-114732419D01*
X82356133Y-115686733D01*
X82638395Y-116396091D01*
X82714405Y-116504861D01*
X83294006Y-116808568D01*
X84206147Y-116945234D01*
X84268890Y-116945833D01*
X85101624Y-117031157D01*
X85428395Y-117360870D01*
X85460417Y-117651388D01*
X85239835Y-118225989D01*
X84931250Y-118356944D01*
X84470252Y-118538136D01*
X84475580Y-119144530D01*
X84611126Y-119549550D01*
X84829225Y-119896748D01*
X85214879Y-119817563D01*
X85652186Y-119549148D01*
X86495598Y-119213367D01*
X87148656Y-119214878D01*
X87696648Y-119188485D01*
X88212028Y-118645119D01*
X88480874Y-118185800D01*
X88964846Y-117401850D01*
X89349669Y-116973126D01*
X89421195Y-116945833D01*
X89570510Y-117264889D01*
X89669509Y-118087862D01*
X89693750Y-118885094D01*
X89749970Y-120106669D01*
X90004778Y-120965568D01*
X90587397Y-121801252D01*
X90969522Y-122236483D01*
X91741870Y-123025651D01*
X92357438Y-123538187D01*
X92590758Y-123648611D01*
X93133684Y-123848751D01*
X93877385Y-124324294D01*
X94570976Y-124887921D01*
X94963570Y-125352315D01*
X94985417Y-125436522D01*
X94672897Y-125717751D01*
X93763172Y-125706059D01*
X92297991Y-125407766D01*
X90319105Y-124829189D01*
X89762627Y-124646060D01*
X86934556Y-123446256D01*
X84636546Y-121899392D01*
X82845041Y-119964567D01*
X81536486Y-117600883D01*
X80687326Y-114767438D01*
X80274005Y-111423332D01*
X80271246Y-111066203D01*
X81697454Y-111066203D01*
X81745879Y-111275929D01*
X81932639Y-111301388D01*
X82223015Y-111172313D01*
X82167824Y-111066203D01*
X81749159Y-111023983D01*
X81697454Y-111066203D01*
X80271246Y-111066203D01*
X80248530Y-108126388D01*
X80258011Y-107920601D01*
X81607712Y-107920601D01*
X81672572Y-108378160D01*
X81792998Y-108383622D01*
X81877212Y-107911468D01*
X81820849Y-107707465D01*
X81664204Y-107573839D01*
X81607712Y-107920601D01*
X80258011Y-107920601D01*
X80343592Y-106063076D01*
X80491985Y-104464182D01*
X80733331Y-103088699D01*
X81107255Y-101695625D01*
X81507819Y-100467055D01*
X82393132Y-98072222D01*
X84049306Y-98072222D01*
X84225695Y-98248611D01*
X84402083Y-98072222D01*
X84225695Y-97895833D01*
X84049306Y-98072222D01*
X82393132Y-98072222D01*
X82620401Y-97457447D01*
X83810815Y-94814823D01*
X85172283Y-92396780D01*
X86028481Y-91166597D01*
X87644699Y-91166597D01*
X87814992Y-91488273D01*
X88106250Y-91545833D01*
X88545307Y-91366834D01*
X88567801Y-91166597D01*
X88203600Y-90802120D01*
X88106250Y-90787361D01*
X87692606Y-91062005D01*
X87644699Y-91166597D01*
X86028481Y-91166597D01*
X86798030Y-90060912D01*
X87904914Y-88723611D01*
X89340972Y-88723611D01*
X89609427Y-89066137D01*
X89693750Y-89076389D01*
X90036276Y-88807933D01*
X90046528Y-88723611D01*
X89778073Y-88381084D01*
X89693750Y-88370833D01*
X89351224Y-88639288D01*
X89340972Y-88723611D01*
X87904914Y-88723611D01*
X88507914Y-87995086D01*
X91544133Y-87995086D01*
X91592388Y-88018055D01*
X91914328Y-87769707D01*
X91986806Y-87665277D01*
X92076701Y-87335469D01*
X92028445Y-87312500D01*
X91706506Y-87560848D01*
X91634028Y-87665277D01*
X91544133Y-87995086D01*
X88507914Y-87995086D01*
X88781279Y-87664816D01*
X88946052Y-87488889D01*
X90399306Y-87488889D01*
X90575695Y-87665277D01*
X90752083Y-87488889D01*
X90575695Y-87312500D01*
X90399306Y-87488889D01*
X88946052Y-87488889D01*
X89606877Y-86783333D01*
X90752083Y-86783333D01*
X90928472Y-86959722D01*
X91104861Y-86783333D01*
X90928472Y-86606944D01*
X90752083Y-86783333D01*
X89606877Y-86783333D01*
X90743821Y-85569431D01*
X92163195Y-85569431D01*
X92432273Y-85891887D01*
X92515972Y-85901389D01*
X92825575Y-85614241D01*
X92868750Y-85351402D01*
X92697726Y-84986257D01*
X92515972Y-85019444D01*
X92176651Y-85470455D01*
X92163195Y-85569431D01*
X90743821Y-85569431D01*
X91215253Y-85066089D01*
X92314568Y-83959192D01*
X93971462Y-82232523D01*
X94930163Y-81159708D01*
X97454861Y-81159708D01*
X97652106Y-81615655D01*
X97807639Y-81668055D01*
X98091494Y-81371698D01*
X98160417Y-80941680D01*
X98024612Y-80453888D01*
X97807639Y-80433333D01*
X97483039Y-80943759D01*
X97454861Y-81159708D01*
X94930163Y-81159708D01*
X95712690Y-80284038D01*
X97329571Y-78356402D01*
X100045572Y-78356402D01*
X100100695Y-78493055D01*
X100417703Y-78829599D01*
X100474292Y-78845833D01*
X100625817Y-78572892D01*
X100629861Y-78493055D01*
X100358662Y-78153834D01*
X100256264Y-78140277D01*
X100045572Y-78356402D01*
X97329571Y-78356402D01*
X97347080Y-78335529D01*
X98442345Y-76920331D01*
X101819802Y-76920331D01*
X101853640Y-77434722D01*
X101945999Y-78498460D01*
X102008311Y-79292789D01*
X102019033Y-79463194D01*
X102345831Y-79780193D01*
X103099306Y-79904166D01*
X103857543Y-79807408D01*
X104134143Y-79404091D01*
X104157639Y-79051620D01*
X104152495Y-79013814D01*
X108223315Y-79013814D01*
X109718255Y-77812448D01*
X110542091Y-77145536D01*
X111085053Y-76696682D01*
X111213194Y-76581929D01*
X110911061Y-76559711D01*
X110360648Y-76552777D01*
X109766082Y-76599624D01*
X109644670Y-76689345D01*
X109550126Y-77032494D01*
X109144968Y-77713721D01*
X109002276Y-77919864D01*
X108223315Y-79013814D01*
X104152495Y-79013814D01*
X104060662Y-78338973D01*
X103893056Y-78051105D01*
X103900021Y-77977693D01*
X104065849Y-78009255D01*
X104464782Y-77795070D01*
X104723833Y-77236400D01*
X104971155Y-76646587D01*
X105324088Y-76677144D01*
X105401578Y-76736815D01*
X105907531Y-76878438D01*
X106192231Y-76542228D01*
X106069631Y-75977844D01*
X106072485Y-75708114D01*
X106313395Y-75742659D01*
X106758025Y-76181061D01*
X106803472Y-76405787D01*
X107119962Y-76810830D01*
X107861806Y-77024839D01*
X108504977Y-77026101D01*
X108643853Y-76868467D01*
X108626157Y-76848450D01*
X108050492Y-76561466D01*
X107950000Y-76552777D01*
X107509633Y-76269964D01*
X107404465Y-76062700D01*
X107438393Y-75750820D01*
X107639650Y-75818937D01*
X107960675Y-75756814D01*
X108038194Y-75318055D01*
X107905604Y-74817291D01*
X107685417Y-74788889D01*
X107360338Y-74760918D01*
X107332639Y-74633319D01*
X107607897Y-74281257D01*
X107745833Y-74259722D01*
X108308502Y-74041504D01*
X108804167Y-73675879D01*
X109215197Y-73012710D01*
X109439500Y-72086043D01*
X109471073Y-71126165D01*
X109303912Y-70363361D01*
X108932011Y-70027916D01*
X108899319Y-70026389D01*
X108532907Y-69857156D01*
X108564864Y-69677652D01*
X108508081Y-69477184D01*
X108232906Y-69539006D01*
X107766520Y-69498072D01*
X107685417Y-69203967D01*
X107951567Y-68792099D01*
X108655556Y-68725251D01*
X109381183Y-68656880D01*
X109681380Y-68175103D01*
X109737321Y-67821527D01*
X109649300Y-67059852D01*
X109213294Y-66861204D01*
X108529411Y-67243613D01*
X108222112Y-67548625D01*
X107650919Y-67998563D01*
X107270038Y-68047421D01*
X106731599Y-68059316D01*
X106209341Y-68627174D01*
X105821113Y-69608765D01*
X105766057Y-69862569D01*
X105499943Y-70672549D01*
X105143976Y-71074950D01*
X105085092Y-71084722D01*
X104553179Y-71323047D01*
X103865677Y-71903173D01*
X103804861Y-71966666D01*
X103357299Y-72543478D01*
X103312744Y-72838594D01*
X103361191Y-72848611D01*
X103713901Y-72672222D01*
X104863195Y-72672222D01*
X105039583Y-72848611D01*
X105215972Y-72672222D01*
X105039583Y-72495833D01*
X104863195Y-72672222D01*
X103713901Y-72672222D01*
X103822925Y-72617700D01*
X103863657Y-72542465D01*
X104258069Y-72208535D01*
X104775000Y-71989525D01*
X105394435Y-71919923D01*
X105568750Y-72295671D01*
X105744602Y-72785853D01*
X106284758Y-72695387D01*
X106976999Y-72216311D01*
X107491588Y-71727083D01*
X107472588Y-71383493D01*
X107192470Y-71114782D01*
X106728638Y-70585906D01*
X106627083Y-70310772D01*
X106827768Y-70258201D01*
X107204127Y-70553035D01*
X107790597Y-70914605D01*
X108156627Y-70754623D01*
X108720826Y-70417704D01*
X108902500Y-70389894D01*
X108957384Y-70535642D01*
X108655556Y-70760201D01*
X108155783Y-71208666D01*
X108071505Y-71593061D01*
X108411848Y-71702845D01*
X108617259Y-71643556D01*
X108998420Y-71550384D01*
X108844373Y-71842820D01*
X108736594Y-71975289D01*
X108263530Y-72300541D01*
X108046181Y-72155978D01*
X107672121Y-72113572D01*
X107035899Y-72613421D01*
X106983408Y-72668446D01*
X106189304Y-73280981D01*
X105403761Y-73553318D01*
X105368610Y-73554166D01*
X104710866Y-73757515D01*
X104333836Y-74212189D01*
X104394546Y-74685127D01*
X104528981Y-74800362D01*
X105109406Y-74881899D01*
X105660101Y-74793393D01*
X106196674Y-74673943D01*
X106110518Y-74843551D01*
X105838817Y-75070087D01*
X105447729Y-75542341D01*
X105456641Y-75793909D01*
X105379604Y-75986879D01*
X105098380Y-76023611D01*
X104592507Y-76207394D01*
X104510417Y-76397208D01*
X104294292Y-76607900D01*
X104157639Y-76552777D01*
X103579223Y-76518233D01*
X103363889Y-76614750D01*
X102570073Y-76888120D01*
X102033765Y-76515190D01*
X101963773Y-76383798D01*
X101843911Y-76367117D01*
X101819802Y-76920331D01*
X98442345Y-76920331D01*
X98683460Y-76608786D01*
X98723791Y-76552777D01*
X100277083Y-76552777D01*
X100453472Y-76729166D01*
X100629861Y-76552777D01*
X100453472Y-76376389D01*
X100277083Y-76552777D01*
X98723791Y-76552777D01*
X98852188Y-76374470D01*
X100110428Y-74612500D01*
X101864583Y-74612500D01*
X101892554Y-74937579D01*
X102020152Y-74965277D01*
X102379393Y-74709192D01*
X102393750Y-74612500D01*
X102273388Y-74268894D01*
X102238181Y-74259722D01*
X101936990Y-74506926D01*
X101864583Y-74612500D01*
X100110428Y-74612500D01*
X100395477Y-74213334D01*
X101643818Y-72497366D01*
X102704523Y-71092080D01*
X103684903Y-69862993D01*
X104692270Y-68675620D01*
X105833936Y-67395477D01*
X106872772Y-66263426D01*
X110272454Y-66263426D01*
X110320879Y-66473152D01*
X110507639Y-66498611D01*
X110798015Y-66369535D01*
X110742824Y-66263426D01*
X110324159Y-66221205D01*
X110272454Y-66263426D01*
X106872772Y-66263426D01*
X107217213Y-65888079D01*
X107236106Y-65867641D01*
X108180237Y-64911111D01*
X110154861Y-64911111D01*
X110331250Y-65087500D01*
X110507639Y-64911111D01*
X110331250Y-64734722D01*
X110154861Y-64911111D01*
X108180237Y-64911111D01*
X108977667Y-64103208D01*
X111310884Y-64103208D01*
X111494884Y-64330075D01*
X111515529Y-64343303D01*
X111825939Y-64912271D01*
X111767278Y-65361772D01*
X111698005Y-65815092D01*
X111986474Y-66007898D01*
X112793248Y-66029061D01*
X112962253Y-66023176D01*
X113940300Y-65884724D01*
X114375696Y-65591204D01*
X114386199Y-65528472D01*
X114611044Y-65118594D01*
X114740972Y-65087500D01*
X115030439Y-64792963D01*
X115093750Y-64402764D01*
X114931758Y-63727424D01*
X114740972Y-63500000D01*
X114457806Y-63601928D01*
X114388195Y-63965151D01*
X114124035Y-64724532D01*
X113770833Y-65115484D01*
X113362810Y-65404020D01*
X113458452Y-65243053D01*
X113594445Y-65088125D01*
X113928861Y-64307734D01*
X114015625Y-63230211D01*
X113841927Y-62223750D01*
X113704124Y-61935184D01*
X113257822Y-61659992D01*
X112773056Y-61893942D01*
X112421315Y-62472582D01*
X112370629Y-63213961D01*
X112356929Y-63841182D01*
X111879022Y-64032063D01*
X111781635Y-64034568D01*
X111310884Y-64103208D01*
X108977667Y-64103208D01*
X109573198Y-63499857D01*
X112115580Y-61204094D01*
X114739454Y-59074625D01*
X117321023Y-57205722D01*
X119736490Y-55691658D01*
X121862058Y-54626706D01*
X122149306Y-54511112D01*
X123056371Y-54128283D01*
X123682003Y-53808215D01*
X123736806Y-53771055D01*
X124291003Y-53553498D01*
X125227620Y-53339827D01*
X125500695Y-53294577D01*
X126318113Y-53186936D01*
X126501368Y-53225791D01*
G37*
X126501368Y-53225791D02*
X126109784Y-53427696D01*
X126058254Y-53450151D01*
X125494036Y-53800269D01*
X125549839Y-54159518D01*
X125617282Y-54232698D01*
X125979172Y-54750208D01*
X125963098Y-55061423D01*
X125588889Y-54972456D01*
X124949094Y-54742895D01*
X124146787Y-54646477D01*
X123470532Y-54694322D01*
X123207639Y-54880696D01*
X123477100Y-55274412D01*
X123822061Y-55518511D01*
X124202965Y-55907926D01*
X124158795Y-56140047D01*
X123682023Y-56195238D01*
X123196382Y-55990117D01*
X122487909Y-55612828D01*
X122188999Y-55672098D01*
X122149306Y-55915277D01*
X122435040Y-56228255D01*
X122678472Y-56268055D01*
X123153952Y-56455296D01*
X123149835Y-56872211D01*
X122732510Y-57301591D01*
X122309471Y-57475326D01*
X121360567Y-57572131D01*
X120949367Y-57232055D01*
X120988847Y-56620482D01*
X121031432Y-56029939D01*
X120695127Y-56026556D01*
X119977142Y-56611520D01*
X119260490Y-57355787D01*
X118329172Y-58238265D01*
X117669056Y-58568540D01*
X117488881Y-58533950D01*
X117205891Y-58429784D01*
X117254177Y-58518914D01*
X117186310Y-58912060D01*
X116745868Y-59585883D01*
X116564820Y-59802717D01*
X115891027Y-60446321D01*
X115477490Y-60511559D01*
X115379934Y-60405716D01*
X115160021Y-60276216D01*
X115099152Y-60695416D01*
X114908651Y-61489525D01*
X114689945Y-61822416D01*
X114559282Y-62161175D01*
X115042696Y-62412731D01*
X115224772Y-62461803D01*
X116200890Y-62576648D01*
X116862948Y-62514450D01*
X117518211Y-62502835D01*
X117763608Y-62656928D01*
X118112057Y-62889251D01*
X118412676Y-62536406D01*
X118595797Y-61718444D01*
X118609898Y-61422575D01*
X119815759Y-61422575D01*
X119872725Y-62183881D01*
X119938497Y-62353472D01*
X120274827Y-62656715D01*
X120569498Y-62371989D01*
X120729907Y-61615037D01*
X120738195Y-61353935D01*
X120639021Y-60462790D01*
X120335748Y-60227756D01*
X120297222Y-60238350D01*
X119977128Y-60656912D01*
X119815759Y-61422575D01*
X118609898Y-61422575D01*
X118621528Y-61178561D01*
X118708065Y-60195779D01*
X119054507Y-59642973D01*
X119513042Y-59374506D01*
X120298305Y-59145107D01*
X120813322Y-59377098D01*
X120818319Y-59382069D01*
X121460339Y-59691177D01*
X122219861Y-59795833D01*
X122709116Y-59807268D01*
X123017875Y-59928711D01*
X123185068Y-60290866D01*
X123249623Y-61024439D01*
X123250472Y-62260134D01*
X123237723Y-63213273D01*
X123266915Y-64487184D01*
X123375971Y-65466806D01*
X123541997Y-65955373D01*
X123558275Y-65968121D01*
X123846769Y-65871451D01*
X123913195Y-65531653D01*
X124170389Y-64694566D01*
X124782672Y-64125309D01*
X125178432Y-64029166D01*
X125512034Y-64337031D01*
X125751239Y-65083774D01*
X125760153Y-65140779D01*
X125699171Y-66224881D01*
X125182832Y-66988126D01*
X124375606Y-67941353D01*
X123882782Y-68826140D01*
X123781527Y-69478257D01*
X123919267Y-69677364D01*
X124040428Y-70044133D01*
X123760548Y-70359462D01*
X123427135Y-70751081D01*
X123622759Y-71138966D01*
X123893171Y-71386655D01*
X124201972Y-71715991D01*
X124375993Y-72149257D01*
X124429889Y-72841901D01*
X124378317Y-73949367D01*
X124263842Y-75318055D01*
X124094047Y-76896039D01*
X123892446Y-78301834D01*
X123691973Y-79320437D01*
X123607070Y-79605429D01*
X123356652Y-80454671D01*
X123071551Y-81699007D01*
X122865179Y-82780429D01*
X122116686Y-85476007D01*
X120783670Y-88369525D01*
X120384235Y-89076389D01*
X120079663Y-89813937D01*
X119865476Y-90595872D01*
X119506627Y-91373992D01*
X119050714Y-91525387D01*
X118155957Y-91513653D01*
X117797804Y-91786112D01*
X117816133Y-92357176D01*
X117837864Y-92882920D01*
X117518943Y-93137373D01*
X116686110Y-93244031D01*
X116561100Y-93251724D01*
X115621484Y-93229543D01*
X115019471Y-93071780D01*
X114947731Y-93006084D01*
X114463588Y-92593018D01*
X113578591Y-92075052D01*
X112556613Y-91583810D01*
X111661531Y-91250915D01*
X111290526Y-91181836D01*
X110536157Y-90967505D01*
X109999240Y-90652669D01*
X109148079Y-90274553D01*
X108211091Y-90134722D01*
X107346085Y-89978810D01*
X106122572Y-89569273D01*
X104799770Y-88993403D01*
X104751599Y-88969696D01*
X103541289Y-88337793D01*
X102893617Y-87896274D01*
X102717969Y-87568936D01*
X102835582Y-87358447D01*
X103066036Y-86920218D01*
X102693911Y-86482678D01*
X102658333Y-86456109D01*
X102194948Y-85924306D01*
X102071550Y-85159936D01*
X102277456Y-83997819D01*
X102457898Y-83356950D01*
X102576757Y-82814583D01*
X110873104Y-82814583D01*
X111047750Y-83076819D01*
X111525916Y-82849931D01*
X112016737Y-82369578D01*
X112482522Y-81603454D01*
X112622553Y-81046661D01*
X112517104Y-80773423D01*
X112153885Y-81031753D01*
X111753296Y-81491666D01*
X111191975Y-82235289D01*
X110889304Y-82750359D01*
X110873104Y-82814583D01*
X102576757Y-82814583D01*
X102667860Y-82398870D01*
X102517270Y-81797330D01*
X101895312Y-81423779D01*
X100691167Y-81149664D01*
X100531507Y-81122272D01*
X99529849Y-81045333D01*
X98883723Y-81296901D01*
X98566424Y-81606681D01*
X97789263Y-82136537D01*
X96939163Y-82218165D01*
X96318891Y-81844444D01*
X96093572Y-81900526D01*
X95866187Y-82493220D01*
X95831372Y-82650443D01*
X95628346Y-83374213D01*
X95435141Y-83636749D01*
X95411484Y-83622826D01*
X95097039Y-83721334D01*
X94764253Y-84094369D01*
X94477060Y-85003031D01*
X94766085Y-85847822D01*
X95513180Y-86439705D01*
X96332869Y-86604192D01*
X97126624Y-86672613D01*
X97405274Y-86965719D01*
X97390062Y-87400694D01*
X97103819Y-88014021D01*
X96483581Y-88110409D01*
X95868490Y-88189140D01*
X95690972Y-88414253D01*
X95376213Y-88642175D01*
X94453543Y-88569938D01*
X94425577Y-88564743D01*
X93606016Y-88447791D01*
X93309781Y-88570432D01*
X93374992Y-89004027D01*
X93381594Y-89024960D01*
X93399127Y-89690796D01*
X93214117Y-89962913D01*
X92791952Y-90459728D01*
X92517648Y-91012258D01*
X92009390Y-91650288D01*
X91019761Y-92380783D01*
X90246353Y-92815577D01*
X89023953Y-93522489D01*
X88398881Y-94123327D01*
X88271035Y-94529948D01*
X88025981Y-95171096D01*
X87408949Y-96046127D01*
X86870308Y-96641069D01*
X86026207Y-97586704D01*
X85669999Y-98295650D01*
X85683212Y-98837080D01*
X85677825Y-99513909D01*
X85135740Y-99979160D01*
X84967273Y-100060276D01*
X84231751Y-100648204D01*
X84049306Y-101437154D01*
X83909976Y-102424558D01*
X83570863Y-103538424D01*
X83534127Y-103628775D01*
X83250264Y-104472953D01*
X83195668Y-105011812D01*
X83223378Y-105066202D01*
X83433913Y-105614757D01*
X83505951Y-106504215D01*
X83449764Y-107449887D01*
X83275624Y-108167084D01*
X83103966Y-108375920D01*
X82795012Y-108854178D01*
X82650602Y-109998145D01*
X82638195Y-110633576D01*
X82575060Y-111885650D01*
X82397818Y-112591422D01*
X82245361Y-112712500D01*
X82063103Y-113014027D01*
X82039882Y-113764425D01*
X82147093Y-114732419D01*
X82356133Y-115686733D01*
X82638395Y-116396091D01*
X82714405Y-116504861D01*
X83294006Y-116808568D01*
X84206147Y-116945234D01*
X84268890Y-116945833D01*
X85101624Y-117031157D01*
X85428395Y-117360870D01*
X85460417Y-117651388D01*
X85239835Y-118225989D01*
X84931250Y-118356944D01*
X84470252Y-118538136D01*
X84475580Y-119144530D01*
X84611126Y-119549550D01*
X84829225Y-119896748D01*
X85214879Y-119817563D01*
X85652186Y-119549148D01*
X86495598Y-119213367D01*
X87148656Y-119214878D01*
X87696648Y-119188485D01*
X88212028Y-118645119D01*
X88480874Y-118185800D01*
X88964846Y-117401850D01*
X89349669Y-116973126D01*
X89421195Y-116945833D01*
X89570510Y-117264889D01*
X89669509Y-118087862D01*
X89693750Y-118885094D01*
X89749970Y-120106669D01*
X90004778Y-120965568D01*
X90587397Y-121801252D01*
X90969522Y-122236483D01*
X91741870Y-123025651D01*
X92357438Y-123538187D01*
X92590758Y-123648611D01*
X93133684Y-123848751D01*
X93877385Y-124324294D01*
X94570976Y-124887921D01*
X94963570Y-125352315D01*
X94985417Y-125436522D01*
X94672897Y-125717751D01*
X93763172Y-125706059D01*
X92297991Y-125407766D01*
X90319105Y-124829189D01*
X89762627Y-124646060D01*
X86934556Y-123446256D01*
X84636546Y-121899392D01*
X82845041Y-119964567D01*
X81536486Y-117600883D01*
X80687326Y-114767438D01*
X80274005Y-111423332D01*
X80271246Y-111066203D01*
X81697454Y-111066203D01*
X81745879Y-111275929D01*
X81932639Y-111301388D01*
X82223015Y-111172313D01*
X82167824Y-111066203D01*
X81749159Y-111023983D01*
X81697454Y-111066203D01*
X80271246Y-111066203D01*
X80248530Y-108126388D01*
X80258011Y-107920601D01*
X81607712Y-107920601D01*
X81672572Y-108378160D01*
X81792998Y-108383622D01*
X81877212Y-107911468D01*
X81820849Y-107707465D01*
X81664204Y-107573839D01*
X81607712Y-107920601D01*
X80258011Y-107920601D01*
X80343592Y-106063076D01*
X80491985Y-104464182D01*
X80733331Y-103088699D01*
X81107255Y-101695625D01*
X81507819Y-100467055D01*
X82393132Y-98072222D01*
X84049306Y-98072222D01*
X84225695Y-98248611D01*
X84402083Y-98072222D01*
X84225695Y-97895833D01*
X84049306Y-98072222D01*
X82393132Y-98072222D01*
X82620401Y-97457447D01*
X83810815Y-94814823D01*
X85172283Y-92396780D01*
X86028481Y-91166597D01*
X87644699Y-91166597D01*
X87814992Y-91488273D01*
X88106250Y-91545833D01*
X88545307Y-91366834D01*
X88567801Y-91166597D01*
X88203600Y-90802120D01*
X88106250Y-90787361D01*
X87692606Y-91062005D01*
X87644699Y-91166597D01*
X86028481Y-91166597D01*
X86798030Y-90060912D01*
X87904914Y-88723611D01*
X89340972Y-88723611D01*
X89609427Y-89066137D01*
X89693750Y-89076389D01*
X90036276Y-88807933D01*
X90046528Y-88723611D01*
X89778073Y-88381084D01*
X89693750Y-88370833D01*
X89351224Y-88639288D01*
X89340972Y-88723611D01*
X87904914Y-88723611D01*
X88507914Y-87995086D01*
X91544133Y-87995086D01*
X91592388Y-88018055D01*
X91914328Y-87769707D01*
X91986806Y-87665277D01*
X92076701Y-87335469D01*
X92028445Y-87312500D01*
X91706506Y-87560848D01*
X91634028Y-87665277D01*
X91544133Y-87995086D01*
X88507914Y-87995086D01*
X88781279Y-87664816D01*
X88946052Y-87488889D01*
X90399306Y-87488889D01*
X90575695Y-87665277D01*
X90752083Y-87488889D01*
X90575695Y-87312500D01*
X90399306Y-87488889D01*
X88946052Y-87488889D01*
X89606877Y-86783333D01*
X90752083Y-86783333D01*
X90928472Y-86959722D01*
X91104861Y-86783333D01*
X90928472Y-86606944D01*
X90752083Y-86783333D01*
X89606877Y-86783333D01*
X90743821Y-85569431D01*
X92163195Y-85569431D01*
X92432273Y-85891887D01*
X92515972Y-85901389D01*
X92825575Y-85614241D01*
X92868750Y-85351402D01*
X92697726Y-84986257D01*
X92515972Y-85019444D01*
X92176651Y-85470455D01*
X92163195Y-85569431D01*
X90743821Y-85569431D01*
X91215253Y-85066089D01*
X92314568Y-83959192D01*
X93971462Y-82232523D01*
X94930163Y-81159708D01*
X97454861Y-81159708D01*
X97652106Y-81615655D01*
X97807639Y-81668055D01*
X98091494Y-81371698D01*
X98160417Y-80941680D01*
X98024612Y-80453888D01*
X97807639Y-80433333D01*
X97483039Y-80943759D01*
X97454861Y-81159708D01*
X94930163Y-81159708D01*
X95712690Y-80284038D01*
X97329571Y-78356402D01*
X100045572Y-78356402D01*
X100100695Y-78493055D01*
X100417703Y-78829599D01*
X100474292Y-78845833D01*
X100625817Y-78572892D01*
X100629861Y-78493055D01*
X100358662Y-78153834D01*
X100256264Y-78140277D01*
X100045572Y-78356402D01*
X97329571Y-78356402D01*
X97347080Y-78335529D01*
X98442345Y-76920331D01*
X101819802Y-76920331D01*
X101853640Y-77434722D01*
X101945999Y-78498460D01*
X102008311Y-79292789D01*
X102019033Y-79463194D01*
X102345831Y-79780193D01*
X103099306Y-79904166D01*
X103857543Y-79807408D01*
X104134143Y-79404091D01*
X104157639Y-79051620D01*
X104152495Y-79013814D01*
X108223315Y-79013814D01*
X109718255Y-77812448D01*
X110542091Y-77145536D01*
X111085053Y-76696682D01*
X111213194Y-76581929D01*
X110911061Y-76559711D01*
X110360648Y-76552777D01*
X109766082Y-76599624D01*
X109644670Y-76689345D01*
X109550126Y-77032494D01*
X109144968Y-77713721D01*
X109002276Y-77919864D01*
X108223315Y-79013814D01*
X104152495Y-79013814D01*
X104060662Y-78338973D01*
X103893056Y-78051105D01*
X103900021Y-77977693D01*
X104065849Y-78009255D01*
X104464782Y-77795070D01*
X104723833Y-77236400D01*
X104971155Y-76646587D01*
X105324088Y-76677144D01*
X105401578Y-76736815D01*
X105907531Y-76878438D01*
X106192231Y-76542228D01*
X106069631Y-75977844D01*
X106072485Y-75708114D01*
X106313395Y-75742659D01*
X106758025Y-76181061D01*
X106803472Y-76405787D01*
X107119962Y-76810830D01*
X107861806Y-77024839D01*
X108504977Y-77026101D01*
X108643853Y-76868467D01*
X108626157Y-76848450D01*
X108050492Y-76561466D01*
X107950000Y-76552777D01*
X107509633Y-76269964D01*
X107404465Y-76062700D01*
X107438393Y-75750820D01*
X107639650Y-75818937D01*
X107960675Y-75756814D01*
X108038194Y-75318055D01*
X107905604Y-74817291D01*
X107685417Y-74788889D01*
X107360338Y-74760918D01*
X107332639Y-74633319D01*
X107607897Y-74281257D01*
X107745833Y-74259722D01*
X108308502Y-74041504D01*
X108804167Y-73675879D01*
X109215197Y-73012710D01*
X109439500Y-72086043D01*
X109471073Y-71126165D01*
X109303912Y-70363361D01*
X108932011Y-70027916D01*
X108899319Y-70026389D01*
X108532907Y-69857156D01*
X108564864Y-69677652D01*
X108508081Y-69477184D01*
X108232906Y-69539006D01*
X107766520Y-69498072D01*
X107685417Y-69203967D01*
X107951567Y-68792099D01*
X108655556Y-68725251D01*
X109381183Y-68656880D01*
X109681380Y-68175103D01*
X109737321Y-67821527D01*
X109649300Y-67059852D01*
X109213294Y-66861204D01*
X108529411Y-67243613D01*
X108222112Y-67548625D01*
X107650919Y-67998563D01*
X107270038Y-68047421D01*
X106731599Y-68059316D01*
X106209341Y-68627174D01*
X105821113Y-69608765D01*
X105766057Y-69862569D01*
X105499943Y-70672549D01*
X105143976Y-71074950D01*
X105085092Y-71084722D01*
X104553179Y-71323047D01*
X103865677Y-71903173D01*
X103804861Y-71966666D01*
X103357299Y-72543478D01*
X103312744Y-72838594D01*
X103361191Y-72848611D01*
X103713901Y-72672222D01*
X104863195Y-72672222D01*
X105039583Y-72848611D01*
X105215972Y-72672222D01*
X105039583Y-72495833D01*
X104863195Y-72672222D01*
X103713901Y-72672222D01*
X103822925Y-72617700D01*
X103863657Y-72542465D01*
X104258069Y-72208535D01*
X104775000Y-71989525D01*
X105394435Y-71919923D01*
X105568750Y-72295671D01*
X105744602Y-72785853D01*
X106284758Y-72695387D01*
X106976999Y-72216311D01*
X107491588Y-71727083D01*
X107472588Y-71383493D01*
X107192470Y-71114782D01*
X106728638Y-70585906D01*
X106627083Y-70310772D01*
X106827768Y-70258201D01*
X107204127Y-70553035D01*
X107790597Y-70914605D01*
X108156627Y-70754623D01*
X108720826Y-70417704D01*
X108902500Y-70389894D01*
X108957384Y-70535642D01*
X108655556Y-70760201D01*
X108155783Y-71208666D01*
X108071505Y-71593061D01*
X108411848Y-71702845D01*
X108617259Y-71643556D01*
X108998420Y-71550384D01*
X108844373Y-71842820D01*
X108736594Y-71975289D01*
X108263530Y-72300541D01*
X108046181Y-72155978D01*
X107672121Y-72113572D01*
X107035899Y-72613421D01*
X106983408Y-72668446D01*
X106189304Y-73280981D01*
X105403761Y-73553318D01*
X105368610Y-73554166D01*
X104710866Y-73757515D01*
X104333836Y-74212189D01*
X104394546Y-74685127D01*
X104528981Y-74800362D01*
X105109406Y-74881899D01*
X105660101Y-74793393D01*
X106196674Y-74673943D01*
X106110518Y-74843551D01*
X105838817Y-75070087D01*
X105447729Y-75542341D01*
X105456641Y-75793909D01*
X105379604Y-75986879D01*
X105098380Y-76023611D01*
X104592507Y-76207394D01*
X104510417Y-76397208D01*
X104294292Y-76607900D01*
X104157639Y-76552777D01*
X103579223Y-76518233D01*
X103363889Y-76614750D01*
X102570073Y-76888120D01*
X102033765Y-76515190D01*
X101963773Y-76383798D01*
X101843911Y-76367117D01*
X101819802Y-76920331D01*
X98442345Y-76920331D01*
X98683460Y-76608786D01*
X98723791Y-76552777D01*
X100277083Y-76552777D01*
X100453472Y-76729166D01*
X100629861Y-76552777D01*
X100453472Y-76376389D01*
X100277083Y-76552777D01*
X98723791Y-76552777D01*
X98852188Y-76374470D01*
X100110428Y-74612500D01*
X101864583Y-74612500D01*
X101892554Y-74937579D01*
X102020152Y-74965277D01*
X102379393Y-74709192D01*
X102393750Y-74612500D01*
X102273388Y-74268894D01*
X102238181Y-74259722D01*
X101936990Y-74506926D01*
X101864583Y-74612500D01*
X100110428Y-74612500D01*
X100395477Y-74213334D01*
X101643818Y-72497366D01*
X102704523Y-71092080D01*
X103684903Y-69862993D01*
X104692270Y-68675620D01*
X105833936Y-67395477D01*
X106872772Y-66263426D01*
X110272454Y-66263426D01*
X110320879Y-66473152D01*
X110507639Y-66498611D01*
X110798015Y-66369535D01*
X110742824Y-66263426D01*
X110324159Y-66221205D01*
X110272454Y-66263426D01*
X106872772Y-66263426D01*
X107217213Y-65888079D01*
X107236106Y-65867641D01*
X108180237Y-64911111D01*
X110154861Y-64911111D01*
X110331250Y-65087500D01*
X110507639Y-64911111D01*
X110331250Y-64734722D01*
X110154861Y-64911111D01*
X108180237Y-64911111D01*
X108977667Y-64103208D01*
X111310884Y-64103208D01*
X111494884Y-64330075D01*
X111515529Y-64343303D01*
X111825939Y-64912271D01*
X111767278Y-65361772D01*
X111698005Y-65815092D01*
X111986474Y-66007898D01*
X112793248Y-66029061D01*
X112962253Y-66023176D01*
X113940300Y-65884724D01*
X114375696Y-65591204D01*
X114386199Y-65528472D01*
X114611044Y-65118594D01*
X114740972Y-65087500D01*
X115030439Y-64792963D01*
X115093750Y-64402764D01*
X114931758Y-63727424D01*
X114740972Y-63500000D01*
X114457806Y-63601928D01*
X114388195Y-63965151D01*
X114124035Y-64724532D01*
X113770833Y-65115484D01*
X113362810Y-65404020D01*
X113458452Y-65243053D01*
X113594445Y-65088125D01*
X113928861Y-64307734D01*
X114015625Y-63230211D01*
X113841927Y-62223750D01*
X113704124Y-61935184D01*
X113257822Y-61659992D01*
X112773056Y-61893942D01*
X112421315Y-62472582D01*
X112370629Y-63213961D01*
X112356929Y-63841182D01*
X111879022Y-64032063D01*
X111781635Y-64034568D01*
X111310884Y-64103208D01*
X108977667Y-64103208D01*
X109573198Y-63499857D01*
X112115580Y-61204094D01*
X114739454Y-59074625D01*
X117321023Y-57205722D01*
X119736490Y-55691658D01*
X121862058Y-54626706D01*
X122149306Y-54511112D01*
X123056371Y-54128283D01*
X123682003Y-53808215D01*
X123736806Y-53771055D01*
X124291003Y-53553498D01*
X125227620Y-53339827D01*
X125500695Y-53294577D01*
X126318113Y-53186936D01*
X126501368Y-53225791D01*
G36*
X153937233Y-110874948D02*
G01*
X155193756Y-111162339D01*
X156611331Y-111533813D01*
X158020074Y-111944388D01*
X159250105Y-112349081D01*
X160131540Y-112702910D01*
X160244081Y-112759870D01*
X161090283Y-113180590D01*
X161661165Y-113406036D01*
X161732932Y-113418055D01*
X162361952Y-113592578D01*
X163439204Y-114064380D01*
X164815227Y-114755808D01*
X166340563Y-115589209D01*
X167865751Y-116486934D01*
X168892361Y-117137741D01*
X170581502Y-118331348D01*
X171935646Y-119450328D01*
X172866797Y-120412506D01*
X173286960Y-121135707D01*
X173302083Y-121255742D01*
X173282255Y-121442825D01*
X173148242Y-121460735D01*
X172788251Y-121242409D01*
X172090489Y-120720787D01*
X171009028Y-119880191D01*
X169978005Y-119050274D01*
X169188603Y-118366838D01*
X168788731Y-117958948D01*
X168770275Y-117926653D01*
X168363187Y-117568711D01*
X167410879Y-117007590D01*
X166026513Y-116293769D01*
X164323251Y-115477729D01*
X162414255Y-114609949D01*
X160412685Y-113740909D01*
X158431704Y-112921088D01*
X156584474Y-112200968D01*
X154984156Y-111631026D01*
X153947124Y-111314265D01*
X153073255Y-111036690D01*
X152609031Y-110804593D01*
X152586866Y-110732346D01*
X153011642Y-110716623D01*
X153937233Y-110874948D01*
G37*
X153937233Y-110874948D02*
X155193756Y-111162339D01*
X156611331Y-111533813D01*
X158020074Y-111944388D01*
X159250105Y-112349081D01*
X160131540Y-112702910D01*
X160244081Y-112759870D01*
X161090283Y-113180590D01*
X161661165Y-113406036D01*
X161732932Y-113418055D01*
X162361952Y-113592578D01*
X163439204Y-114064380D01*
X164815227Y-114755808D01*
X166340563Y-115589209D01*
X167865751Y-116486934D01*
X168892361Y-117137741D01*
X170581502Y-118331348D01*
X171935646Y-119450328D01*
X172866797Y-120412506D01*
X173286960Y-121135707D01*
X173302083Y-121255742D01*
X173282255Y-121442825D01*
X173148242Y-121460735D01*
X172788251Y-121242409D01*
X172090489Y-120720787D01*
X171009028Y-119880191D01*
X169978005Y-119050274D01*
X169188603Y-118366838D01*
X168788731Y-117958948D01*
X168770275Y-117926653D01*
X168363187Y-117568711D01*
X167410879Y-117007590D01*
X166026513Y-116293769D01*
X164323251Y-115477729D01*
X162414255Y-114609949D01*
X160412685Y-113740909D01*
X158431704Y-112921088D01*
X156584474Y-112200968D01*
X154984156Y-111631026D01*
X153947124Y-111314265D01*
X153073255Y-111036690D01*
X152609031Y-110804593D01*
X152586866Y-110732346D01*
X153011642Y-110716623D01*
X153937233Y-110874948D01*
G36*
X160591832Y-120742066D02*
G01*
X160602083Y-120826389D01*
X160333628Y-121168915D01*
X160249306Y-121179166D01*
X159906779Y-120910711D01*
X159896528Y-120826389D01*
X160164983Y-120483862D01*
X160249306Y-120473611D01*
X160591832Y-120742066D01*
G37*
X160591832Y-120742066D02*
X160602083Y-120826389D01*
X160333628Y-121168915D01*
X160249306Y-121179166D01*
X159906779Y-120910711D01*
X159896528Y-120826389D01*
X160164983Y-120483862D01*
X160249306Y-120473611D01*
X160591832Y-120742066D01*
G36*
X106485864Y-112533075D02*
G01*
X106376619Y-112769457D01*
X105818700Y-113187775D01*
X104748676Y-113837180D01*
X103424089Y-114588073D01*
X101253613Y-115807553D01*
X99596132Y-116760417D01*
X98342685Y-117513181D01*
X97384307Y-118132362D01*
X96612037Y-118684476D01*
X96238856Y-118974305D01*
X95330896Y-119560931D01*
X94633874Y-119759888D01*
X94292752Y-119537627D01*
X94279861Y-119427689D01*
X94557770Y-119023631D01*
X95073611Y-118670634D01*
X95800725Y-118164316D01*
X96149474Y-117776277D01*
X96682819Y-117346349D01*
X96925695Y-117298611D01*
X97548382Y-117033317D01*
X97701915Y-116857638D01*
X98407429Y-116121829D01*
X99579476Y-115268592D01*
X101042322Y-114389393D01*
X102620230Y-113575698D01*
X104137463Y-112918973D01*
X105418286Y-112510684D01*
X106209868Y-112429478D01*
X106485864Y-112533075D01*
G37*
X106485864Y-112533075D02*
X106376619Y-112769457D01*
X105818700Y-113187775D01*
X104748676Y-113837180D01*
X103424089Y-114588073D01*
X101253613Y-115807553D01*
X99596132Y-116760417D01*
X98342685Y-117513181D01*
X97384307Y-118132362D01*
X96612037Y-118684476D01*
X96238856Y-118974305D01*
X95330896Y-119560931D01*
X94633874Y-119759888D01*
X94292752Y-119537627D01*
X94279861Y-119427689D01*
X94557770Y-119023631D01*
X95073611Y-118670634D01*
X95800725Y-118164316D01*
X96149474Y-117776277D01*
X96682819Y-117346349D01*
X96925695Y-117298611D01*
X97548382Y-117033317D01*
X97701915Y-116857638D01*
X98407429Y-116121829D01*
X99579476Y-115268592D01*
X101042322Y-114389393D01*
X102620230Y-113575698D01*
X104137463Y-112918973D01*
X105418286Y-112510684D01*
X106209868Y-112429478D01*
X106485864Y-112533075D01*
G36*
X107942651Y-119202141D02*
G01*
X107837439Y-119362483D01*
X107479630Y-119387427D01*
X107103204Y-119301271D01*
X107266493Y-119174290D01*
X107817842Y-119132234D01*
X107942651Y-119202141D01*
G37*
X107942651Y-119202141D02*
X107837439Y-119362483D01*
X107479630Y-119387427D01*
X107103204Y-119301271D01*
X107266493Y-119174290D01*
X107817842Y-119132234D01*
X107942651Y-119202141D01*
G36*
X90935115Y-115087755D02*
G01*
X90879657Y-115358333D01*
X90629261Y-115822506D01*
X90537951Y-115887500D01*
X90414630Y-115599428D01*
X90399306Y-115358333D01*
X90583926Y-114888779D01*
X90741012Y-114829166D01*
X90935115Y-115087755D01*
G37*
X90935115Y-115087755D02*
X90879657Y-115358333D01*
X90629261Y-115822506D01*
X90537951Y-115887500D01*
X90414630Y-115599428D01*
X90399306Y-115358333D01*
X90583926Y-114888779D01*
X90741012Y-114829166D01*
X90935115Y-115087755D01*
G36*
X114388195Y-110276082D02*
G01*
X114092434Y-110535969D01*
X113682639Y-110595833D01*
X113108380Y-110538927D01*
X112977083Y-110460589D01*
X113267959Y-110275278D01*
X113682639Y-110140838D01*
X114245171Y-110121054D01*
X114388195Y-110276082D01*
G37*
X114388195Y-110276082D02*
X114092434Y-110535969D01*
X113682639Y-110595833D01*
X113108380Y-110538927D01*
X112977083Y-110460589D01*
X113267959Y-110275278D01*
X113682639Y-110140838D01*
X114245171Y-110121054D01*
X114388195Y-110276082D01*
G36*
X147990278Y-109656639D02*
G01*
X148034595Y-109785401D01*
X147549306Y-109834576D01*
X147048492Y-109779136D01*
X147108333Y-109656639D01*
X147830592Y-109610045D01*
X147990278Y-109656639D01*
G37*
X147990278Y-109656639D02*
X148034595Y-109785401D01*
X147549306Y-109834576D01*
X147048492Y-109779136D01*
X147108333Y-109656639D01*
X147830592Y-109610045D01*
X147990278Y-109656639D01*
G36*
X135022216Y-108202425D02*
G01*
X137634504Y-108277907D01*
X140039025Y-108399205D01*
X142134458Y-108566394D01*
X143819484Y-108779552D01*
X144992782Y-109038756D01*
X145412196Y-109218424D01*
X145531735Y-109410045D01*
X145024742Y-109460290D01*
X144197917Y-109407637D01*
X140671140Y-109102656D01*
X137734396Y-108869968D01*
X135276270Y-108705839D01*
X133185348Y-108606536D01*
X131350216Y-108568326D01*
X129659458Y-108587477D01*
X128001661Y-108660255D01*
X126265409Y-108782927D01*
X126058116Y-108799862D01*
X124116033Y-108966790D01*
X122326469Y-109132414D01*
X120855194Y-109280562D01*
X119867977Y-109395059D01*
X119679861Y-109422191D01*
X118890703Y-109494086D01*
X118723425Y-109345322D01*
X118802656Y-109238656D01*
X119429571Y-108950392D01*
X120659276Y-108707328D01*
X122390453Y-108509539D01*
X124521782Y-108357103D01*
X126951943Y-108250096D01*
X129579615Y-108188596D01*
X132303479Y-108172680D01*
X135022216Y-108202425D01*
G37*
X135022216Y-108202425D02*
X137634504Y-108277907D01*
X140039025Y-108399205D01*
X142134458Y-108566394D01*
X143819484Y-108779552D01*
X144992782Y-109038756D01*
X145412196Y-109218424D01*
X145531735Y-109410045D01*
X145024742Y-109460290D01*
X144197917Y-109407637D01*
X140671140Y-109102656D01*
X137734396Y-108869968D01*
X135276270Y-108705839D01*
X133185348Y-108606536D01*
X131350216Y-108568326D01*
X129659458Y-108587477D01*
X128001661Y-108660255D01*
X126265409Y-108782927D01*
X126058116Y-108799862D01*
X124116033Y-108966790D01*
X122326469Y-109132414D01*
X120855194Y-109280562D01*
X119867977Y-109395059D01*
X119679861Y-109422191D01*
X118890703Y-109494086D01*
X118723425Y-109345322D01*
X118802656Y-109238656D01*
X119429571Y-108950392D01*
X120659276Y-108707328D01*
X122390453Y-108509539D01*
X124521782Y-108357103D01*
X126951943Y-108250096D01*
X129579615Y-108188596D01*
X132303479Y-108172680D01*
X135022216Y-108202425D01*
G36*
X135019500Y-98885250D02*
G01*
X136635818Y-98923430D01*
X137928971Y-98998686D01*
X138994480Y-99115064D01*
X139927865Y-99276608D01*
X140824646Y-99487365D01*
X141001359Y-99533996D01*
X142372627Y-99982429D01*
X143547691Y-100511214D01*
X144248518Y-100982639D01*
X145068520Y-101556069D01*
X145857576Y-101790197D01*
X146279611Y-101841608D01*
X146142785Y-102017725D01*
X145432639Y-102370266D01*
X144709456Y-102612210D01*
X143680126Y-102788509D01*
X142234420Y-102909793D01*
X140262112Y-102986692D01*
X138729861Y-103016692D01*
X136654915Y-103036823D01*
X134662194Y-103037753D01*
X132935478Y-103020662D01*
X131658546Y-102986729D01*
X131321528Y-102969145D01*
X130108843Y-102855981D01*
X128468399Y-102658580D01*
X126668091Y-102410482D01*
X125757694Y-102272570D01*
X124144606Y-102053195D01*
X122710406Y-101919275D01*
X121649556Y-101885809D01*
X121252031Y-101925102D01*
X120467112Y-101947677D01*
X120188508Y-101557356D01*
X120429020Y-100845477D01*
X120997942Y-100112089D01*
X121996456Y-99043177D01*
X127276353Y-98952709D01*
X130435287Y-98903935D01*
X132984496Y-98880100D01*
X135019500Y-98885250D01*
G37*
X135019500Y-98885250D02*
X136635818Y-98923430D01*
X137928971Y-98998686D01*
X138994480Y-99115064D01*
X139927865Y-99276608D01*
X140824646Y-99487365D01*
X141001359Y-99533996D01*
X142372627Y-99982429D01*
X143547691Y-100511214D01*
X144248518Y-100982639D01*
X145068520Y-101556069D01*
X145857576Y-101790197D01*
X146279611Y-101841608D01*
X146142785Y-102017725D01*
X145432639Y-102370266D01*
X144709456Y-102612210D01*
X143680126Y-102788509D01*
X142234420Y-102909793D01*
X140262112Y-102986692D01*
X138729861Y-103016692D01*
X136654915Y-103036823D01*
X134662194Y-103037753D01*
X132935478Y-103020662D01*
X131658546Y-102986729D01*
X131321528Y-102969145D01*
X130108843Y-102855981D01*
X128468399Y-102658580D01*
X126668091Y-102410482D01*
X125757694Y-102272570D01*
X124144606Y-102053195D01*
X122710406Y-101919275D01*
X121649556Y-101885809D01*
X121252031Y-101925102D01*
X120467112Y-101947677D01*
X120188508Y-101557356D01*
X120429020Y-100845477D01*
X120997942Y-100112089D01*
X121996456Y-99043177D01*
X127276353Y-98952709D01*
X130435287Y-98903935D01*
X132984496Y-98880100D01*
X135019500Y-98885250D01*
G36*
X168713222Y-80400543D02*
G01*
X168715972Y-80566526D01*
X168539950Y-81187272D01*
X168146569Y-81285447D01*
X167858732Y-81002472D01*
X167928991Y-80553386D01*
X168190690Y-80253720D01*
X168593262Y-80030563D01*
X168713222Y-80400543D01*
G37*
X168713222Y-80400543D02*
X168715972Y-80566526D01*
X168539950Y-81187272D01*
X168146569Y-81285447D01*
X167858732Y-81002472D01*
X167928991Y-80553386D01*
X168190690Y-80253720D01*
X168593262Y-80030563D01*
X168713222Y-80400543D01*
G36*
X166246528Y-73025000D02*
G01*
X166070139Y-73201389D01*
X165893750Y-73025000D01*
X166070139Y-72848611D01*
X166246528Y-73025000D01*
G37*
X166246528Y-73025000D02*
X166070139Y-73201389D01*
X165893750Y-73025000D01*
X166070139Y-72848611D01*
X166246528Y-73025000D01*
G36*
X117890982Y-59640936D02*
G01*
X117742828Y-60017428D01*
X117488106Y-60890948D01*
X117436605Y-61295139D01*
X117281830Y-61848189D01*
X116992275Y-61770371D01*
X116766131Y-61247897D01*
X116892807Y-60481755D01*
X117308393Y-59970187D01*
X117809502Y-59565989D01*
X117890982Y-59640936D01*
G37*
X117890982Y-59640936D02*
X117742828Y-60017428D01*
X117488106Y-60890948D01*
X117436605Y-61295139D01*
X117281830Y-61848189D01*
X116992275Y-61770371D01*
X116766131Y-61247897D01*
X116892807Y-60481755D01*
X117308393Y-59970187D01*
X117809502Y-59565989D01*
X117890982Y-59640936D01*
G36*
X153546528Y-61736111D02*
G01*
X153370139Y-61912500D01*
X153193750Y-61736111D01*
X153370139Y-61559722D01*
X153546528Y-61736111D01*
G37*
X153546528Y-61736111D02*
X153370139Y-61912500D01*
X153193750Y-61736111D01*
X153370139Y-61559722D01*
X153546528Y-61736111D01*
G36*
X151429861Y-59619444D02*
G01*
X151253472Y-59795833D01*
X151077083Y-59619444D01*
X151253472Y-59443055D01*
X151429861Y-59619444D01*
G37*
X151429861Y-59619444D02*
X151253472Y-59795833D01*
X151077083Y-59619444D01*
X151253472Y-59443055D01*
X151429861Y-59619444D01*
G36*
X146490972Y-57855555D02*
G01*
X146314583Y-58031944D01*
X146138194Y-57855555D01*
X146314583Y-57679166D01*
X146490972Y-57855555D01*
G37*
X146490972Y-57855555D02*
X146314583Y-58031944D01*
X146138194Y-57855555D01*
X146314583Y-57679166D01*
X146490972Y-57855555D01*
G36*
X143198380Y-56032870D02*
G01*
X143149954Y-56242596D01*
X142963194Y-56268055D01*
X142672818Y-56138979D01*
X142728009Y-56032870D01*
X143146674Y-55990649D01*
X143198380Y-56032870D01*
G37*
X143198380Y-56032870D02*
X143149954Y-56242596D01*
X142963194Y-56268055D01*
X142672818Y-56138979D01*
X142728009Y-56032870D01*
X143146674Y-55990649D01*
X143198380Y-56032870D01*
G36*
X142889881Y-53190431D02*
G01*
X144417056Y-53787765D01*
X145198623Y-54194800D01*
X145339183Y-54402456D01*
X144875503Y-54407385D01*
X143844354Y-54206240D01*
X142786806Y-53936191D01*
X141652574Y-53694414D01*
X140724847Y-53612867D01*
X140407775Y-53650265D01*
X139969690Y-53668566D01*
X140018666Y-53255718D01*
X140515861Y-52879686D01*
X141507964Y-52862162D01*
X142889881Y-53190431D01*
G37*
X142889881Y-53190431D02*
X144417056Y-53787765D01*
X145198623Y-54194800D01*
X145339183Y-54402456D01*
X144875503Y-54407385D01*
X143844354Y-54206240D01*
X142786806Y-53936191D01*
X141652574Y-53694414D01*
X140724847Y-53612867D01*
X140407775Y-53650265D01*
X139969690Y-53668566D01*
X140018666Y-53255718D01*
X140515861Y-52879686D01*
X141507964Y-52862162D01*
X142889881Y-53190431D01*
G36*
X136759008Y-52175124D02*
G01*
X137904278Y-52352639D01*
X138024306Y-52387500D01*
X138502286Y-52609107D01*
X138310523Y-52742063D01*
X137480073Y-52779481D01*
X136436806Y-52739548D01*
X132814568Y-52650240D01*
X129518884Y-52808662D01*
X129028472Y-52858076D01*
X126911806Y-53089611D01*
X128675695Y-52568971D01*
X129879419Y-52333462D01*
X131507772Y-52172087D01*
X133342595Y-52089083D01*
X135165727Y-52088684D01*
X136759008Y-52175124D01*
G37*
X136759008Y-52175124D02*
X137904278Y-52352639D01*
X138024306Y-52387500D01*
X138502286Y-52609107D01*
X138310523Y-52742063D01*
X137480073Y-52779481D01*
X136436806Y-52739548D01*
X132814568Y-52650240D01*
X129518884Y-52808662D01*
X129028472Y-52858076D01*
X126911806Y-53089611D01*
X128675695Y-52568971D01*
X129879419Y-52333462D01*
X131507772Y-52172087D01*
X133342595Y-52089083D01*
X135165727Y-52088684D01*
X136759008Y-52175124D01*
G36*
X102628935Y-77552314D02*
G01*
X102671156Y-77970979D01*
X102628935Y-78022685D01*
X102419209Y-77974259D01*
X102393750Y-77787500D01*
X102522826Y-77497124D01*
X102628935Y-77552314D01*
G37*
X102628935Y-77552314D02*
X102671156Y-77970979D01*
X102628935Y-78022685D01*
X102419209Y-77974259D01*
X102393750Y-77787500D01*
X102522826Y-77497124D01*
X102628935Y-77552314D01*
G36*
X107238707Y-73699851D02*
G01*
X107156250Y-73906944D01*
X106666033Y-74180540D01*
X106165291Y-74234927D01*
X105624782Y-74193725D01*
X105767017Y-74053455D01*
X106097917Y-73906944D01*
X106957614Y-73607696D01*
X107238707Y-73699851D01*
G37*
X107238707Y-73699851D02*
X107156250Y-73906944D01*
X106666033Y-74180540D01*
X106165291Y-74234927D01*
X105624782Y-74193725D01*
X105767017Y-74053455D01*
X106097917Y-73906944D01*
X106957614Y-73607696D01*
X107238707Y-73699851D01*
G36*
X108038194Y-73025000D02*
G01*
X107861806Y-73201389D01*
X107685417Y-73025000D01*
X107861806Y-72848611D01*
X108038194Y-73025000D01*
G37*
X108038194Y-73025000D02*
X107861806Y-73201389D01*
X107685417Y-73025000D01*
X107861806Y-72848611D01*
X108038194Y-73025000D01*
G36*
X113212269Y-62735648D02*
G01*
X113254489Y-63154312D01*
X113212269Y-63206018D01*
X113002543Y-63157592D01*
X112977083Y-62970833D01*
X113106159Y-62680457D01*
X113212269Y-62735648D01*
G37*
X113212269Y-62735648D02*
X113254489Y-63154312D01*
X113212269Y-63206018D01*
X113002543Y-63157592D01*
X112977083Y-62970833D01*
X113106159Y-62680457D01*
X113212269Y-62735648D01*
D11*
G04 #@! TO.C,MX8*
X143668750Y-79533750D02*
X143668750Y-65563750D01*
X157638750Y-79533750D02*
X143668750Y-79533750D01*
X157638750Y-65563750D02*
X157638750Y-79533750D01*
X143668750Y-65563750D02*
X157638750Y-65563750D01*
G04 #@! TO.C,MX7*
X175577500Y-137287000D02*
X175577500Y-123317000D01*
X189547500Y-137287000D02*
X175577500Y-137287000D01*
X189547500Y-123317000D02*
X189547500Y-137287000D01*
X175577500Y-123317000D02*
X189547500Y-123317000D01*
G04 #@! TO.C,MX6*
X133508750Y-99060000D02*
X133508750Y-85090000D01*
X147478750Y-99060000D02*
X133508750Y-99060000D01*
X147478750Y-85090000D02*
X147478750Y-99060000D01*
X133508750Y-85090000D02*
X147478750Y-85090000D01*
G04 #@! TO.C,MX5*
X95408750Y-99060000D02*
X95408750Y-85090000D01*
X109378750Y-99060000D02*
X95408750Y-99060000D01*
X109378750Y-85090000D02*
X109378750Y-99060000D01*
X95408750Y-85090000D02*
X109378750Y-85090000D01*
G04 #@! TO.C,MX4*
X135890000Y-137160000D02*
X135890000Y-123190000D01*
X149860000Y-137160000D02*
X135890000Y-137160000D01*
X149860000Y-123190000D02*
X149860000Y-137160000D01*
X135890000Y-123190000D02*
X149860000Y-123190000D01*
G04 #@! TO.C,MX3*
X175577500Y-99060000D02*
X175577500Y-85090000D01*
X189547500Y-99060000D02*
X175577500Y-99060000D01*
X189547500Y-85090000D02*
X189547500Y-99060000D01*
X175577500Y-85090000D02*
X189547500Y-85090000D01*
G04 #@! TO.C,MX2*
X95408750Y-137160000D02*
X95408750Y-123190000D01*
X109378750Y-137160000D02*
X95408750Y-137160000D01*
X109378750Y-123190000D02*
X109378750Y-137160000D01*
X95408750Y-123190000D02*
X109378750Y-123190000D01*
G04 #@! TO.C,MX1*
X94456250Y-60483750D02*
X94456250Y-46513750D01*
X108426250Y-60483750D02*
X94456250Y-60483750D01*
X108426250Y-46513750D02*
X108426250Y-60483750D01*
X94456250Y-46513750D02*
X108426250Y-46513750D01*
G04 #@! TO.C,MX8*
D12*
X149368035Y-65127130D02*
X149368035Y-64127130D01*
X149701369Y-64841416D01*
X150034702Y-64127130D01*
X150034702Y-65127130D01*
X150415654Y-64127130D02*
X151082321Y-65127130D01*
X151082321Y-64127130D02*
X150415654Y-65127130D01*
X151606130Y-64555702D02*
X151510892Y-64508083D01*
X151463273Y-64460464D01*
X151415654Y-64365226D01*
X151415654Y-64317607D01*
X151463273Y-64222369D01*
X151510892Y-64174750D01*
X151606130Y-64127130D01*
X151796607Y-64127130D01*
X151891845Y-64174750D01*
X151939464Y-64222369D01*
X151987083Y-64317607D01*
X151987083Y-64365226D01*
X151939464Y-64460464D01*
X151891845Y-64508083D01*
X151796607Y-64555702D01*
X151606130Y-64555702D01*
X151510892Y-64603321D01*
X151463273Y-64650940D01*
X151415654Y-64746178D01*
X151415654Y-64936654D01*
X151463273Y-65031892D01*
X151510892Y-65079511D01*
X151606130Y-65127130D01*
X151796607Y-65127130D01*
X151891845Y-65079511D01*
X151939464Y-65031892D01*
X151987083Y-64936654D01*
X151987083Y-64746178D01*
X151939464Y-64650940D01*
X151891845Y-64603321D01*
X151796607Y-64555702D01*
G04 #@! TO.C,MX7*
X181276785Y-122880380D02*
X181276785Y-121880380D01*
X181610119Y-122594666D01*
X181943452Y-121880380D01*
X181943452Y-122880380D01*
X182324404Y-121880380D02*
X182991071Y-122880380D01*
X182991071Y-121880380D02*
X182324404Y-122880380D01*
X183276785Y-121880380D02*
X183943452Y-121880380D01*
X183514880Y-122880380D01*
G04 #@! TO.C,MX6*
X139208035Y-84653380D02*
X139208035Y-83653380D01*
X139541369Y-84367666D01*
X139874702Y-83653380D01*
X139874702Y-84653380D01*
X140255654Y-83653380D02*
X140922321Y-84653380D01*
X140922321Y-83653380D02*
X140255654Y-84653380D01*
X141731845Y-83653380D02*
X141541369Y-83653380D01*
X141446130Y-83701000D01*
X141398511Y-83748619D01*
X141303273Y-83891476D01*
X141255654Y-84081952D01*
X141255654Y-84462904D01*
X141303273Y-84558142D01*
X141350892Y-84605761D01*
X141446130Y-84653380D01*
X141636607Y-84653380D01*
X141731845Y-84605761D01*
X141779464Y-84558142D01*
X141827083Y-84462904D01*
X141827083Y-84224809D01*
X141779464Y-84129571D01*
X141731845Y-84081952D01*
X141636607Y-84034333D01*
X141446130Y-84034333D01*
X141350892Y-84081952D01*
X141303273Y-84129571D01*
X141255654Y-84224809D01*
G04 #@! TO.C,MX5*
X101108035Y-84653380D02*
X101108035Y-83653380D01*
X101441369Y-84367666D01*
X101774702Y-83653380D01*
X101774702Y-84653380D01*
X102155654Y-83653380D02*
X102822321Y-84653380D01*
X102822321Y-83653380D02*
X102155654Y-84653380D01*
X103679464Y-83653380D02*
X103203273Y-83653380D01*
X103155654Y-84129571D01*
X103203273Y-84081952D01*
X103298511Y-84034333D01*
X103536607Y-84034333D01*
X103631845Y-84081952D01*
X103679464Y-84129571D01*
X103727083Y-84224809D01*
X103727083Y-84462904D01*
X103679464Y-84558142D01*
X103631845Y-84605761D01*
X103536607Y-84653380D01*
X103298511Y-84653380D01*
X103203273Y-84605761D01*
X103155654Y-84558142D01*
G04 #@! TO.C,MX4*
X141589285Y-122753380D02*
X141589285Y-121753380D01*
X141922619Y-122467666D01*
X142255952Y-121753380D01*
X142255952Y-122753380D01*
X142636904Y-121753380D02*
X143303571Y-122753380D01*
X143303571Y-121753380D02*
X142636904Y-122753380D01*
X144113095Y-122086714D02*
X144113095Y-122753380D01*
X143875000Y-121705761D02*
X143636904Y-122420047D01*
X144255952Y-122420047D01*
G04 #@! TO.C,MX3*
X181276785Y-84653380D02*
X181276785Y-83653380D01*
X181610119Y-84367666D01*
X181943452Y-83653380D01*
X181943452Y-84653380D01*
X182324404Y-83653380D02*
X182991071Y-84653380D01*
X182991071Y-83653380D02*
X182324404Y-84653380D01*
X183276785Y-83653380D02*
X183895833Y-83653380D01*
X183562500Y-84034333D01*
X183705357Y-84034333D01*
X183800595Y-84081952D01*
X183848214Y-84129571D01*
X183895833Y-84224809D01*
X183895833Y-84462904D01*
X183848214Y-84558142D01*
X183800595Y-84605761D01*
X183705357Y-84653380D01*
X183419642Y-84653380D01*
X183324404Y-84605761D01*
X183276785Y-84558142D01*
G04 #@! TO.C,MX2*
X101108035Y-122753380D02*
X101108035Y-121753380D01*
X101441369Y-122467666D01*
X101774702Y-121753380D01*
X101774702Y-122753380D01*
X102155654Y-121753380D02*
X102822321Y-122753380D01*
X102822321Y-121753380D02*
X102155654Y-122753380D01*
X103155654Y-121848619D02*
X103203273Y-121801000D01*
X103298511Y-121753380D01*
X103536607Y-121753380D01*
X103631845Y-121801000D01*
X103679464Y-121848619D01*
X103727083Y-121943857D01*
X103727083Y-122039095D01*
X103679464Y-122181952D01*
X103108035Y-122753380D01*
X103727083Y-122753380D01*
G04 #@! TO.C,MX1*
X100155535Y-46077130D02*
X100155535Y-45077130D01*
X100488869Y-45791416D01*
X100822202Y-45077130D01*
X100822202Y-46077130D01*
X101203154Y-45077130D02*
X101869821Y-46077130D01*
X101869821Y-45077130D02*
X101203154Y-46077130D01*
X102774583Y-46077130D02*
X102203154Y-46077130D01*
X102488869Y-46077130D02*
X102488869Y-45077130D01*
X102393630Y-45219988D01*
X102298392Y-45315226D01*
X102203154Y-45362845D01*
G04 #@! TD*
%LPC*%
D13*
G04 #@! TO.C,MX11*
X81280000Y-42068750D03*
X81280000Y-156368750D03*
D14*
X66040000Y-42068750D03*
X66040000Y-156368750D03*
D15*
X73025000Y-94138750D03*
X73025000Y-104298750D03*
D13*
X73025000Y-99218750D03*
G04 #@! TD*
G04 #@! TO.C,MX10*
X190366000Y-119416000D03*
X95116000Y-119416000D03*
D14*
X190366000Y-104176000D03*
X95116000Y-104176000D03*
D15*
X147821000Y-111161000D03*
X137661000Y-111161000D03*
D13*
X142741000Y-111161000D03*
G04 #@! TD*
G04 #@! TO.C,MX9*
X92075000Y-143351250D03*
X187325000Y-143351250D03*
D14*
X92075000Y-158591250D03*
X187325000Y-158591250D03*
D15*
X125095000Y-151606250D03*
X135255000Y-151606250D03*
D13*
X130175000Y-151606250D03*
G04 #@! TD*
D16*
G04 #@! TO.C,MX8*
X200653750Y-65548750D03*
X100653750Y-65548750D03*
D17*
X100653750Y-80788750D03*
X200653750Y-80788750D03*
D18*
X155733750Y-72548750D03*
X145573750Y-72548750D03*
D17*
X150653750Y-72548750D03*
D19*
X146843750Y-70008750D03*
X153193750Y-67468750D03*
G04 #@! TD*
D16*
G04 #@! TO.C,MX7*
X194462500Y-123302000D03*
X170662500Y-123302000D03*
D17*
X170662500Y-138542000D03*
X194462500Y-138542000D03*
D18*
X187642500Y-130302000D03*
X177482500Y-130302000D03*
D17*
X182562500Y-130302000D03*
D19*
X178752500Y-127762000D03*
X185102500Y-125222000D03*
G04 #@! TD*
D16*
G04 #@! TO.C,MX6*
X152393750Y-85075000D03*
X128593750Y-85075000D03*
D17*
X128593750Y-100315000D03*
X152393750Y-100315000D03*
D18*
X145573750Y-92075000D03*
X135413750Y-92075000D03*
D17*
X140493750Y-92075000D03*
D19*
X136683750Y-89535000D03*
X143033750Y-86995000D03*
G04 #@! TD*
D16*
G04 #@! TO.C,MX5*
X114293750Y-85075000D03*
X90493750Y-85075000D03*
D17*
X90493750Y-100315000D03*
X114293750Y-100315000D03*
D18*
X107473750Y-92075000D03*
X97313750Y-92075000D03*
D17*
X102393750Y-92075000D03*
D19*
X98583750Y-89535000D03*
X104933750Y-86995000D03*
G04 #@! TD*
D16*
G04 #@! TO.C,MX4*
X154775000Y-123175000D03*
X130975000Y-123175000D03*
D17*
X130975000Y-138415000D03*
X154775000Y-138415000D03*
D18*
X147955000Y-130175000D03*
X137795000Y-130175000D03*
D17*
X142875000Y-130175000D03*
D19*
X139065000Y-127635000D03*
X145415000Y-125095000D03*
G04 #@! TD*
D16*
G04 #@! TO.C,MX3*
X194462500Y-85075000D03*
X170662500Y-85075000D03*
D17*
X170662500Y-100315000D03*
X194462500Y-100315000D03*
D18*
X187642500Y-92075000D03*
X177482500Y-92075000D03*
D17*
X182562500Y-92075000D03*
D19*
X178752500Y-89535000D03*
X185102500Y-86995000D03*
G04 #@! TD*
D16*
G04 #@! TO.C,MX2*
X114293750Y-123175000D03*
X90493750Y-123175000D03*
D17*
X90493750Y-138415000D03*
X114293750Y-138415000D03*
D18*
X107473750Y-130175000D03*
X97313750Y-130175000D03*
D17*
X102393750Y-130175000D03*
D19*
X98583750Y-127635000D03*
X104933750Y-125095000D03*
G04 #@! TD*
D16*
G04 #@! TO.C,MX1*
X113341250Y-46498750D03*
X89541250Y-46498750D03*
D17*
X89541250Y-61738750D03*
X113341250Y-61738750D03*
D18*
X106521250Y-53498750D03*
X96361250Y-53498750D03*
D17*
X101441250Y-53498750D03*
D19*
X97631250Y-50958750D03*
X103981250Y-48418750D03*
G04 #@! TD*
M02*
