M48
; DRILL file {KiCad 5.1.6} date Thu Sep 17 01:01:28 2020
; FORMAT={-:-/ absolute / inch / decimal}
; #@! TF.CreationDate,2020-09-17T01:01:28+03:00
; #@! TF.GenerationSoftware,Kicad,Pcbnew,5.1.6
; #@! TF.FileFunction,Plated,1,2,PTH
FMAT,2
INCH
T1C0.0409
T2C0.0579
T3C0.0591
%
G90
G05
T1
X5.075Y-5.7687
X5.175Y-5.7687
X5.5697Y-4.5764
X5.6697Y-4.5764
X3.075Y-3.8562
X3.075Y-3.9562
T2
X2.675Y-3.8062
X2.775Y-4.0562
X5.025Y-6.1688
X5.275Y-6.0687
X5.4697Y-4.2764
X5.7197Y-4.1764
T3
X7.0375Y-3.525
X7.2875Y-3.425
X5.475Y-5.025
X5.725Y-4.925
X5.3812Y-3.525
X5.6312Y-3.425
X5.7812Y-2.7563
X6.0312Y-2.6562
X3.8438Y-2.0063
X4.0938Y-1.9062
X3.8813Y-3.525
X4.1312Y-3.425
X7.0375Y-5.03
X7.2875Y-4.93
X3.8813Y-5.025
X4.1312Y-4.925
T0
M30
