M48
; DRILL file {KiCad 5.1.6} date Thu Sep 17 01:01:28 2020
; FORMAT={-:-/ absolute / inch / decimal}
; #@! TF.CreationDate,2020-09-17T01:01:28+03:00
; #@! TF.GenerationSoftware,Kicad,Pcbnew,5.1.6
; #@! TF.FileFunction,NonPlated,1,2,NPTH
FMAT,2
INCH
T1C0.0669
T2C0.0689
T3C0.1200
T4C0.1201
T5C0.1570
T6C0.1575
%
G90
G05
T1
X7.3875Y-3.625
X5.425Y-5.125
X5.825Y-5.125
X5.7313Y-3.625
X3.8312Y-3.625
X4.2313Y-3.625
X6.9875Y-5.13
X7.3875Y-5.13
X3.8312Y-5.125
X4.2313Y-5.125
X6.9875Y-3.625
X5.3312Y-3.625
X5.7313Y-2.8562
X6.1312Y-2.8562
X3.7937Y-2.1062
X4.1937Y-2.1062
T2
X5.8197Y-4.3764
X2.875Y-3.7062
X2.875Y-4.1063
X4.925Y-5.9688
X5.325Y-5.9688
X5.4197Y-4.3764
T3
X3.625Y-6.2437
X7.375Y-6.2437
X3.7447Y-4.1014
X7.4947Y-4.1014
X2.6Y-1.6562
X2.6Y-6.1562
T4
X3.5252Y-1.8307
X4.4623Y-1.8307
X3.5627Y-3.3494
X4.4998Y-3.3494
X6.719Y-4.8544
X7.656Y-4.8544
X3.5627Y-4.8494
X4.4998Y-4.8494
X6.719Y-3.3494
X7.656Y-3.3494
X5.1565Y-4.8494
X6.0935Y-4.8494
X5.0627Y-3.3494
X5.9998Y-3.3494
X3.9627Y-2.5807
X7.8998Y-2.5807
T5
X3.625Y-5.6437
X5.125Y-5.9688
X7.375Y-5.6437
X3.7447Y-4.7014
X5.6197Y-4.3764
X7.4947Y-4.7014
X2.875Y-3.9062
X3.2Y-1.6562
X3.2Y-6.1562
T6
X3.5627Y-5.4494
X4.0312Y-5.125
X4.4998Y-5.4494
X6.719Y-3.9494
X7.1875Y-3.625
X7.656Y-3.9494
X5.1565Y-5.4494
X5.625Y-5.125
X6.0935Y-5.4494
X5.0627Y-3.9494
X5.5312Y-3.625
X5.9998Y-3.9494
X3.9627Y-3.1807
X5.9312Y-2.8562
X7.8998Y-3.1807
X3.5252Y-2.4307
X3.9937Y-2.1062
X4.4623Y-2.4307
X3.5627Y-3.9494
X4.0312Y-3.625
X4.4998Y-3.9494
X6.719Y-5.4544
X7.1875Y-5.13
X7.656Y-5.4544
T0
M30
